<svg width="175" height="40" viewBox="0 0 175 40" fill="none" xmlns="http://www.w3.org/2000/svg">
<circle cx="20" cy="20.0004" r="20" fill="#00B307"/>
<g clip-path="url(#clip0_460_42648)">
<path d="M22.9981 13.9891H24.6414V11.1271C24.3579 11.0881 23.3829 11.0004 22.2474 11.0004C19.8781 11.0004 18.2551 12.4906 18.2551 15.2296V17.7504H15.6406V20.9499H18.2551V29.0004H21.4606V20.9506H23.9694L24.3676 17.7511H21.4599V15.5469C21.4606 14.6221 21.7096 13.9891 22.9981 13.9891Z" fill="white"/>
</g>
<path d="M74 14.4192C73.3306 14.7129 72.6174 14.9075 71.8737 15.002C72.6388 14.5452 73.2226 13.8275 73.4971 12.9624C72.7839 13.3876 71.9964 13.688 71.1571 13.8556C70.4799 13.1345 69.5146 12.6879 68.4616 12.6879C66.4186 12.6879 64.7739 14.3461 64.7739 16.379C64.7739 16.6715 64.7986 16.9527 64.8594 17.2205C61.7915 17.0709 59.0769 15.6005 57.2533 13.3606C56.9349 13.913 56.7481 14.5452 56.7481 15.2259C56.7481 16.5039 57.4062 17.6367 58.3872 18.2926C57.7944 18.2814 57.2127 18.1092 56.72 17.8381C56.72 17.8494 56.72 17.864 56.72 17.8786C56.72 19.6719 57.9991 21.1614 59.6765 21.5045C59.3761 21.5866 59.0487 21.626 58.709 21.626C58.4727 21.626 58.2342 21.6125 58.0104 21.563C58.4885 23.0244 59.8453 24.0987 61.4585 24.1336C60.203 25.1157 58.6089 25.7075 56.8831 25.7075C56.5805 25.7075 56.2902 25.694 56 25.6569C57.6346 26.711 59.5719 27.3129 61.661 27.3129C68.4515 27.3129 72.164 21.6879 72.164 16.8121C72.164 16.649 72.1584 16.4915 72.1505 16.3351C72.8829 15.8154 73.4982 15.1662 74 14.4192Z" fill="#4D4D4D"/>
<g clip-path="url(#clip1_460_42648)">
<path d="M110.244 11.0004C105.311 11.0004 102.688 14.1618 102.688 17.6089C102.688 19.2076 103.581 21.2012 105.011 21.8335C105.228 21.9314 105.346 21.8897 105.394 21.6883C105.437 21.5353 105.625 20.7984 105.716 20.4508C105.744 20.3394 105.73 20.2427 105.64 20.138C105.165 19.589 104.788 18.5888 104.788 17.6505C104.788 15.2463 106.699 12.9118 109.952 12.9118C112.765 12.9118 114.732 14.7389 114.732 17.3524C114.732 20.3057 113.17 22.3488 111.139 22.3488C110.015 22.3488 109.178 21.4667 109.443 20.3754C109.764 19.076 110.393 17.6787 110.393 16.7415C110.393 15.9011 109.918 15.2058 108.948 15.2058C107.804 15.2058 106.876 16.3387 106.876 17.8598C106.876 18.8262 107.218 19.4787 107.218 19.4787C107.218 19.4787 106.086 24.051 105.876 24.9049C105.52 26.3506 105.924 28.6918 105.959 28.8932C105.981 29.0046 106.105 29.0394 106.175 28.9483C106.287 28.802 107.655 26.8501 108.038 25.4393C108.178 24.9251 108.75 22.8404 108.75 22.8404C109.127 23.5211 110.215 24.0915 111.374 24.0915C114.821 24.0915 117.312 21.0617 117.312 17.3018C117.3 13.6971 114.215 11.0004 110.244 11.0004Z" fill="#4D4D4D"/>
</g>
<g clip-path="url(#clip2_460_42648)">
<path d="M163.982 16.2924C163.94 15.336 163.785 14.6785 163.564 14.1087C163.335 13.504 162.983 12.9625 162.523 12.5124C162.073 12.0553 161.528 11.7001 160.93 11.4751C160.357 11.2535 159.703 11.0989 158.746 11.0567C157.783 11.0109 157.477 11.0004 155.033 11.0004C152.589 11.0004 152.283 11.0109 151.323 11.0531C150.367 11.0953 149.709 11.2501 149.14 11.4715C148.535 11.7001 147.993 12.0517 147.543 12.5124C147.086 12.9625 146.731 13.5075 146.506 14.1053C146.284 14.6785 146.13 15.3324 146.088 16.2888C146.042 17.2524 146.031 17.5583 146.031 20.0021C146.031 22.446 146.042 22.7519 146.084 23.7118C146.126 24.6682 146.281 25.3258 146.503 25.8955C146.731 26.5003 147.086 27.0418 147.543 27.4919C147.993 27.949 148.538 28.3042 149.136 28.5292C149.709 28.7507 150.363 28.9054 151.32 28.9476C152.28 28.9899 152.586 29.0003 155.03 29.0003C157.473 29.0003 157.779 28.9899 158.739 28.9476C159.696 28.9054 160.353 28.7507 160.923 28.5292C162.132 28.0615 163.089 27.1051 163.557 25.8955C163.778 25.3223 163.933 24.6682 163.975 23.7118C164.017 22.7519 164.028 22.446 164.028 20.0021C164.028 17.5583 164.024 17.2524 163.982 16.2924ZM162.361 23.6415C162.322 24.5206 162.175 24.9953 162.052 25.3118C161.749 26.0959 161.127 26.7183 160.343 27.0207C160.026 27.1438 159.548 27.2915 158.672 27.3301C157.723 27.3724 157.438 27.3828 155.037 27.3828C152.635 27.3828 152.347 27.3724 151.401 27.3301C150.522 27.2915 150.047 27.1438 149.73 27.0207C149.34 26.8765 148.985 26.648 148.697 26.3491C148.398 26.0572 148.169 25.7056 148.025 25.3153C147.902 24.9989 147.754 24.5206 147.716 23.6451C147.673 22.6957 147.663 22.4108 147.663 20.0091C147.663 17.6075 147.673 17.3192 147.716 16.3733C147.754 15.4942 147.902 15.0195 148.025 14.7031C148.169 14.3127 148.398 13.9576 148.7 13.6692C148.992 13.3703 149.344 13.1417 149.734 12.9977C150.05 12.8746 150.529 12.7269 151.404 12.6882C152.354 12.646 152.638 12.6355 155.04 12.6355C157.445 12.6355 157.73 12.646 158.676 12.6882C159.555 12.7269 160.03 12.8746 160.346 12.9977C160.736 13.1417 161.092 13.3703 161.38 13.6692C161.679 13.9611 161.907 14.3127 162.052 14.7031C162.175 15.0195 162.322 15.4977 162.361 16.3733C162.403 17.3227 162.414 17.6075 162.414 20.0091C162.414 22.4108 162.403 22.6921 162.361 23.6415Z" fill="#4D4D4D"/>
<path d="M155.034 15.3782C152.481 15.3782 150.41 17.4492 150.41 20.0021C150.41 22.555 152.481 24.6261 155.034 24.6261C157.587 24.6261 159.658 22.555 159.658 20.0021C159.658 17.4492 157.587 15.3782 155.034 15.3782ZM155.034 23.0016C153.378 23.0016 152.035 21.6584 152.035 20.0021C152.035 18.3459 153.378 17.0027 155.034 17.0027C156.69 17.0027 158.034 18.3459 158.034 20.0021C158.034 21.6584 156.69 23.0016 155.034 23.0016Z" fill="#4D4D4D"/>
<path d="M160.919 15.1953C160.919 15.7915 160.436 16.2748 159.839 16.2748C159.243 16.2748 158.76 15.7915 158.76 15.1953C158.76 14.5991 159.243 14.1158 159.839 14.1158C160.436 14.1158 160.919 14.5991 160.919 15.1953Z" fill="#4D4D4D"/>
</g>
<defs>
<clipPath id="clip0_460_42648">
<rect width="18" height="18" fill="white" transform="translate(11 11.0004)"/>
</clipPath>
<clipPath id="clip1_460_42648">
<rect width="18" height="18" fill="white" transform="translate(101 11.0004)"/>
</clipPath>
<clipPath id="clip2_460_42648">
<rect width="18" height="18" fill="white" transform="translate(146 11.0004)"/>
</clipPath>
</defs>
</svg>
