<svg width="175" height="40" viewBox="0 0 175 40" fill="none" xmlns="http://www.w3.org/2000/svg">
<circle cx="20" cy="20" r="20" fill="#00B307"/>
<path d="M22.9981 13.9887H24.6414V11.1267C24.3579 11.0878 23.3829 11 22.2474 11C19.8781 11 18.2551 12.4902 18.2551 15.2292V17.75H15.6406V20.9495H18.2551V29H21.4606V20.9503H23.9694L24.3676 17.7508H21.4599V15.5465C21.4606 14.6217 21.7096 13.9887 22.9981 13.9887Z" fill="white"/>
<path d="M74 14.4189C73.3306 14.7125 72.6174 14.9071 71.8737 15.0016C72.6388 14.5449 73.2226 13.8271 73.4971 12.962C72.7839 13.3873 71.9964 13.6876 71.1571 13.8553C70.4799 13.1341 69.5146 12.6875 68.4616 12.6875C66.4186 12.6875 64.7739 14.3458 64.7739 16.3786C64.7739 16.6711 64.7986 16.9524 64.8594 17.2201C61.7915 17.0705 59.0769 15.6001 57.2533 13.3603C56.9349 13.9126 56.7481 14.5449 56.7481 15.2255C56.7481 16.5035 57.4062 17.6364 58.3872 18.2923C57.7944 18.281 57.2127 18.1089 56.72 17.8378C56.72 17.849 56.72 17.8636 56.72 17.8783C56.72 19.6715 57.9991 21.161 59.6765 21.5041C59.3761 21.5863 59.0487 21.6256 58.709 21.6256C58.4727 21.6256 58.2342 21.6121 58.0104 21.5626C58.4885 23.024 59.8453 24.0984 61.4585 24.1333C60.203 25.1154 58.6089 25.7071 56.8831 25.7071C56.5805 25.7071 56.2902 25.6936 56 25.6565C57.6346 26.7106 59.5719 27.3125 61.661 27.3125C68.4515 27.3125 72.164 21.6875 72.164 16.8118C72.164 16.6486 72.1584 16.4911 72.1505 16.3348C72.8829 15.815 73.4982 15.1659 74 14.4189Z" fill="#4D4D4D"/>
<path d="M110.244 11C105.311 11 102.688 14.1614 102.688 17.6085C102.688 19.2072 103.581 21.2008 105.011 21.8331C105.228 21.931 105.346 21.8894 105.394 21.688C105.437 21.535 105.625 20.7981 105.716 20.4504C105.744 20.339 105.73 20.2423 105.64 20.1377C105.165 19.5886 104.788 18.5885 104.788 17.6502C104.788 15.2459 106.699 12.9115 109.952 12.9115C112.765 12.9115 114.732 14.7385 114.732 17.352C114.732 20.3053 113.17 22.3484 111.139 22.3484C110.015 22.3484 109.178 21.4663 109.443 20.375C109.764 19.0756 110.393 17.6783 110.393 16.7411C110.393 15.9007 109.918 15.2054 108.948 15.2054C107.804 15.2054 106.876 16.3384 106.876 17.8594C106.876 18.8259 107.218 19.4784 107.218 19.4784C107.218 19.4784 106.086 24.0506 105.876 24.9045C105.52 26.3502 105.924 28.6914 105.959 28.8928C105.981 29.0042 106.105 29.0391 106.175 28.9479C106.287 28.8017 107.655 26.8497 108.038 25.4389C108.178 24.9248 108.75 22.84 108.75 22.84C109.127 23.5207 110.215 24.0911 111.374 24.0911C114.821 24.0911 117.312 21.0613 117.312 17.3014C117.3 13.6967 114.215 11 110.244 11Z" fill="#4D4D4D"/>
<g clip-path="url(#clip0_629_2695)">
<path d="M163.982 16.292C163.94 15.3356 163.785 14.6781 163.564 14.1084C163.335 13.5036 162.983 12.9621 162.523 12.512C162.073 12.0549 161.528 11.6997 160.93 11.4747C160.357 11.2531 159.703 11.0985 158.746 11.0563C157.783 11.0106 157.477 11 155.033 11C152.589 11 152.283 11.0106 151.323 11.0527C150.367 11.0949 149.709 11.2497 149.14 11.4711C148.535 11.6997 147.993 12.0513 147.543 12.512C147.086 12.9621 146.731 13.5072 146.506 14.1049C146.284 14.6781 146.13 15.3321 146.088 16.2885C146.042 17.252 146.031 17.5579 146.031 20.0018C146.031 22.4456 146.042 22.7515 146.084 23.7115C146.126 24.6679 146.281 25.3254 146.503 25.8952C146.731 26.4999 147.086 27.0414 147.543 27.4915C147.993 27.9486 148.538 28.3038 149.136 28.5288C149.709 28.7504 150.363 28.905 151.32 28.9472C152.28 28.9895 152.586 28.9999 155.03 28.9999C157.473 28.9999 157.779 28.9895 158.739 28.9472C159.696 28.905 160.353 28.7504 160.923 28.5288C162.132 28.0611 163.089 27.1047 163.557 25.8952C163.778 25.322 163.933 24.6679 163.975 23.7115C164.017 22.7515 164.028 22.4456 164.028 20.0018C164.028 17.5579 164.024 17.252 163.982 16.292ZM162.361 23.6411C162.322 24.5202 162.175 24.9949 162.052 25.3114C161.749 26.0956 161.127 26.7179 160.343 27.0204C160.026 27.1434 159.548 27.2911 158.672 27.3297C157.723 27.372 157.438 27.3824 155.037 27.3824C152.635 27.3824 152.347 27.372 151.401 27.3297C150.522 27.2911 150.047 27.1434 149.73 27.0204C149.34 26.8761 148.985 26.6476 148.697 26.3487C148.398 26.0568 148.169 25.7052 148.025 25.315C147.902 24.9985 147.754 24.5202 147.716 23.6447C147.673 22.6953 147.663 22.4104 147.663 20.0088C147.663 17.6071 147.673 17.3188 147.716 16.373C147.754 15.4939 147.902 15.0192 148.025 14.7027C148.169 14.3123 148.398 13.9573 148.7 13.6688C148.992 13.3699 149.344 13.1414 149.734 12.9973C150.05 12.8742 150.529 12.7266 151.404 12.6878C152.354 12.6457 152.638 12.6351 155.04 12.6351C157.445 12.6351 157.73 12.6457 158.676 12.6878C159.555 12.7266 160.03 12.8742 160.346 12.9973C160.736 13.1414 161.092 13.3699 161.38 13.6688C161.679 13.9607 161.907 14.3123 162.052 14.7027C162.175 15.0192 162.322 15.4973 162.361 16.373C162.403 17.3224 162.414 17.6071 162.414 20.0088C162.414 22.4104 162.403 22.6917 162.361 23.6411Z" fill="#4D4D4D"/>
<path d="M155.034 15.3778C152.481 15.3778 150.41 17.4489 150.41 20.0018C150.41 22.5547 152.481 24.6257 155.034 24.6257C157.587 24.6257 159.658 22.5547 159.658 20.0018C159.658 17.4489 157.587 15.3778 155.034 15.3778ZM155.034 23.0012C153.378 23.0012 152.035 21.658 152.035 20.0018C152.035 18.3455 153.378 17.0023 155.034 17.0023C156.69 17.0023 158.034 18.3455 158.034 20.0018C158.034 21.658 156.69 23.0012 155.034 23.0012Z" fill="#4D4D4D"/>
<path d="M160.919 15.195C160.919 15.7911 160.436 16.2744 159.839 16.2744C159.243 16.2744 158.76 15.7911 158.76 15.195C158.76 14.5987 159.243 14.1155 159.839 14.1155C160.436 14.1155 160.919 14.5987 160.919 15.195Z" fill="#4D4D4D"/>
</g>
<defs>
<clipPath id="clip0_629_2695">
<rect width="18" height="18" fill="white" transform="translate(146 11)"/>
</clipPath>
</defs>
</svg>
