<svg width="555" height="253" viewBox="0 0 555 253" fill="none" xmlns="http://www.w3.org/2000/svg">
<path d="M336.934 158.762C337.211 187.729 330.893 209.872 317.987 225.201C305.073 240.53 287.397 248.295 264.959 248.506C242.412 248.724 224.492 241.296 211.19 226.219C197.889 211.151 191.1 189.134 190.814 160.159L190.326 109.209C190.048 80.3431 196.366 58.1996 209.272 42.7698C222.178 27.3484 239.905 19.5242 262.452 19.3054C284.89 19.0867 302.768 26.566 316.069 41.7434C329.37 56.9208 336.168 78.9381 336.446 107.804L336.934 158.762ZM299.217 102.461C299.041 84.2215 295.852 70.7436 289.652 62.0444C283.451 53.3368 274.483 49.046 262.755 49.1554C251.027 49.2648 242.168 53.7322 236.186 62.5576C230.204 71.383 227.293 84.9114 227.47 103.151L228.067 165.055C228.244 183.405 231.458 196.95 237.717 205.708C243.968 214.466 252.962 218.782 264.698 218.673C276.426 218.563 285.26 214.096 291.191 205.27C297.123 196.445 300 182.816 299.823 164.365L299.217 102.461Z" fill="#00B307"/>
<g opacity="0.4">
<path opacity="0.4" d="M336.934 158.762C337.211 187.729 330.893 209.872 317.987 225.201C305.073 240.53 287.397 248.295 264.959 248.506C242.412 248.724 224.492 241.296 211.19 226.219C197.889 211.151 191.1 189.134 190.814 160.159L190.326 109.209C190.048 80.3431 196.366 58.1996 209.272 42.7698C222.178 27.3484 239.905 19.5242 262.452 19.3054C284.89 19.0867 302.768 26.566 316.069 41.7434C329.37 56.9208 336.168 78.9381 336.446 107.804L336.934 158.762ZM299.217 102.461C299.041 84.2215 295.852 70.7436 289.652 62.0444C283.451 53.3368 274.483 49.046 262.755 49.1554C251.027 49.2648 242.168 53.7322 236.186 62.5576C230.204 71.383 227.293 84.9114 227.47 103.151L228.067 165.055C228.244 183.405 231.458 196.95 237.717 205.708C243.968 214.466 252.962 218.782 264.698 218.673C276.426 218.563 285.26 214.096 291.191 205.27C297.123 196.445 300 182.816 299.823 164.365L299.217 102.461Z" fill="#1A1A1A"/>
</g>
<path d="M358.354 158.561C358.631 187.528 352.313 209.671 339.407 225C326.493 240.329 308.817 248.094 286.379 248.305C263.832 248.523 245.912 241.094 232.61 226.018C219.309 210.95 212.52 188.933 212.234 159.958L211.746 109.008C211.468 80.1419 217.786 57.9984 230.692 42.5686C243.598 27.1473 261.324 19.323 283.872 19.1043C306.31 18.8855 324.188 26.3648 337.489 41.5422C350.79 56.7196 357.588 78.7369 357.866 107.603L358.354 158.561ZM320.637 102.26C320.461 84.0204 317.272 70.5425 311.072 61.8432C304.871 53.1356 295.903 48.8449 284.175 48.9542C272.447 49.0636 263.588 53.531 257.606 62.3564C251.624 71.1819 248.713 84.7103 248.89 102.95L249.487 164.854C249.664 183.203 252.878 196.749 259.137 205.507C265.388 214.265 274.382 218.581 286.118 218.471C297.846 218.362 306.68 213.895 312.611 205.069C318.542 196.244 321.42 182.614 321.243 164.164L320.637 102.26Z" fill="#00B307"/>
<path d="M211.905 112.045C211.947 112.154 206.975 114.131 200.8 116.453C194.616 118.775 189.577 120.567 189.535 120.449C189.493 120.34 194.465 118.363 200.649 116.041C206.824 113.719 211.863 111.927 211.905 112.045Z" fill="#00B307"/>
<path d="M213.142 132.177C213.184 132.287 208.212 134.264 202.037 136.586C195.853 138.908 190.814 140.7 190.772 140.582C190.729 140.473 195.702 138.496 201.885 136.174C208.052 133.852 213.1 132.06 213.142 132.177Z" fill="#00B307"/>
<path d="M214.379 152.31C214.421 152.42 209.449 154.397 203.274 156.719C197.09 159.041 192.05 160.833 192.008 160.715C191.966 160.606 196.938 158.628 203.122 156.306C209.289 153.984 214.337 152.192 214.379 152.31Z" fill="#00B307"/>
<path d="M215.616 172.443C215.658 172.552 210.685 174.529 204.51 176.852C198.326 179.174 193.287 180.966 193.245 180.848C193.203 180.738 198.175 178.761 204.359 176.439C210.526 174.117 215.573 172.325 215.616 172.443Z" fill="#00B307"/>
<path d="M216.852 192.576C216.861 192.601 216.592 192.736 216.078 192.954C215.574 193.173 214.833 193.476 213.925 193.838C212.099 194.57 209.558 195.546 206.748 196.606C203.938 197.666 201.381 198.6 199.521 199.247C198.596 199.575 197.839 199.836 197.317 200.005C196.795 200.173 196.501 200.257 196.484 200.223C196.476 200.198 196.745 200.063 197.258 199.845C197.763 199.626 198.503 199.323 199.412 198.961C201.238 198.229 203.778 197.253 206.588 196.193C209.398 195.133 211.956 194.199 213.807 193.552C214.732 193.223 215.489 192.963 216.011 192.794C216.541 192.626 216.836 192.542 216.852 192.576Z" fill="#00B307"/>
<path d="M222.598 210.993C222.624 211.052 221.648 211.473 220.049 212.112C218.459 212.752 216.247 213.61 213.79 214.535C211.333 215.461 209.104 216.268 207.488 216.832C205.865 217.396 204.855 217.724 204.83 217.665C204.805 217.606 205.781 217.185 207.379 216.546C208.969 215.907 211.182 215.048 213.638 214.123C216.087 213.198 218.316 212.39 219.94 211.826C221.564 211.254 222.582 210.934 222.598 210.993Z" fill="#00B307"/>
<path d="M234.907 227.887C234.932 227.945 234.066 228.324 232.644 228.905C231.23 229.477 229.253 230.242 227.074 231.067C224.887 231.891 222.901 232.606 221.454 233.111C220.007 233.616 219.107 233.894 219.082 233.835C219.057 233.776 219.923 233.397 221.345 232.817C222.758 232.245 224.736 231.479 226.915 230.654C229.102 229.83 231.087 229.115 232.535 228.61C233.982 228.114 234.882 227.828 234.907 227.887Z" fill="#00B307"/>
<path d="M255.359 238.965C255.385 239.024 254.518 239.402 253.096 239.983C251.674 240.563 249.706 241.321 247.527 242.145C245.339 242.969 243.354 243.685 241.907 244.189C240.46 244.694 239.559 244.972 239.534 244.913C239.509 244.854 240.376 244.475 241.797 243.895C243.211 243.323 245.188 242.557 247.367 241.733C249.554 240.908 251.54 240.193 252.987 239.688C254.434 239.184 255.334 238.906 255.359 238.965Z" fill="#00B307"/>
<path d="M317.045 195.999C317.095 196.109 310.71 199.087 302.785 202.654C294.859 206.221 288.39 209.014 288.339 208.905C288.289 208.796 294.674 205.817 302.6 202.25C310.533 198.691 316.994 195.89 317.045 195.999Z" fill="#00B307"/>
<path d="M321.235 178.754C321.285 178.863 316.01 181.345 309.465 184.29C302.911 187.234 297.56 189.531 297.509 189.422C297.459 189.312 302.734 186.83 309.288 183.886C315.833 180.941 321.184 178.644 321.235 178.754Z" fill="#00B307"/>
<path d="M323.161 159.377C323.212 159.487 317.937 161.969 311.391 164.913C304.837 167.858 299.487 170.155 299.436 170.045C299.386 169.936 304.661 167.454 311.215 164.509C317.76 161.565 323.111 159.26 323.161 159.377Z" fill="#00B307"/>
<path d="M325.088 139.994C325.138 140.103 319.863 142.585 313.318 145.53C306.764 148.474 301.413 150.771 301.363 150.662C301.312 150.553 306.587 148.071 313.141 145.126C319.687 142.181 325.037 139.885 325.088 139.994Z" fill="#00B307"/>
<path d="M327.023 120.619C327.073 120.728 321.798 123.21 315.253 126.155C308.699 129.099 303.348 131.396 303.298 131.287C303.247 131.178 308.522 128.696 315.076 125.751C321.613 122.806 326.972 120.51 327.023 120.619Z" fill="#00B307"/>
<path d="M323.161 103.363C323.212 103.472 317.937 105.954 311.391 108.899C304.837 111.844 299.487 114.14 299.436 114.031C299.386 113.922 304.661 111.44 311.215 108.495C317.76 105.551 323.111 103.254 323.161 103.363Z" fill="#00B307"/>
<path d="M323.161 84.787C323.212 84.8963 317.937 87.3782 311.391 90.3228C304.837 93.2674 299.487 95.5642 299.436 95.4549C299.386 95.3455 304.661 92.8636 311.215 89.919C317.76 86.9744 323.111 84.6776 323.161 84.787Z" fill="#00B307"/>
<path d="M321.235 67.2948C321.285 67.4041 316.01 69.886 309.465 72.8306C302.911 75.7752 297.56 78.072 297.509 77.9627C297.459 77.8533 302.734 75.3714 309.288 72.4268C315.833 69.4822 321.184 67.1854 321.235 67.2948Z" fill="#00B307"/>
<path d="M304.619 55.1038C304.669 55.2132 301.481 56.7528 297.493 58.5448C293.505 60.3368 290.232 61.6997 290.19 61.5904C290.14 61.481 293.328 59.9414 297.316 58.1494C301.295 56.3574 304.568 54.9944 304.619 55.1038Z" fill="#00B307"/>
<path d="M295.734 47.6429C295.785 47.7522 292.596 49.2919 288.608 51.0839C284.621 52.8759 281.348 54.2388 281.306 54.1294C281.255 54.0201 284.444 52.4805 288.432 50.6885C292.411 48.8964 295.684 47.5335 295.734 47.6429Z" fill="#00B307"/>
<path d="M212.856 87.6376C212.898 87.747 207.926 89.724 201.751 92.0461C195.567 94.3681 190.527 96.1601 190.485 96.0423C190.443 95.9246 195.415 93.9559 201.599 91.6338C207.774 89.3118 212.814 87.5282 212.856 87.6376Z" fill="#00B307"/>
<path d="M219.048 62.5344C219.09 62.6437 213.697 64.7807 207 67.2962C200.303 69.8117 194.843 71.7636 194.801 71.6458C194.759 71.5364 200.152 69.3995 206.849 66.884C213.546 64.3684 219.006 62.4166 219.048 62.5344Z" fill="#00B307"/>
<path d="M235.227 37.6812C235.269 37.7906 228.429 40.466 219.948 43.6546C211.468 46.8432 204.561 49.3335 204.519 49.2157C204.476 49.1063 211.316 46.4309 219.797 43.2423C228.269 40.0621 235.185 37.5718 235.227 37.6812Z" fill="#00B307"/>
<path d="M354.728 196.277C354.728 196.286 354.601 196.243 354.374 196.159C354.13 196.067 353.794 195.932 353.365 195.764C352.919 195.596 352.338 195.478 351.665 195.284C350.975 195.192 350.185 194.998 349.284 194.998C345.692 194.763 340.307 196.075 335.1 199.971C332.458 201.855 329.993 204.438 327.587 207.399C325.172 210.352 322.808 213.692 320.124 217.066C317.44 220.423 314.353 223.83 310.432 226.464C306.537 229.105 301.935 231.015 297.022 231.899C292.1 232.807 287.128 232.546 282.559 231.419C277.974 230.317 273.793 228.516 269.889 226.716C265.985 224.907 262.334 223.056 258.834 221.542C255.343 219.994 251.961 218.875 248.806 218.126C245.642 217.403 242.715 217.091 240.14 217.125C237.566 217.15 235.37 217.546 233.62 218.008C231.887 218.538 230.583 219.094 229.741 219.531C229.329 219.75 229.018 219.918 228.782 220.036C228.564 220.145 228.454 220.204 228.446 220.196C228.446 220.187 228.547 220.12 228.757 219.994C228.984 219.859 229.304 219.683 229.699 219.447C230.532 218.976 231.836 218.395 233.569 217.84C235.328 217.344 237.54 216.923 240.132 216.873C242.723 216.814 245.684 217.108 248.873 217.815C252.053 218.547 255.469 219.657 258.977 221.197C262.502 222.703 266.154 224.545 270.057 226.337C273.961 228.121 278.117 229.905 282.66 230.99C287.178 232.1 292.083 232.353 296.946 231.461C301.8 230.586 306.343 228.702 310.197 226.102C314.075 223.511 317.138 220.145 319.821 216.805C322.505 213.457 324.878 210.125 327.318 207.164C329.749 204.202 332.256 201.603 334.931 199.718C340.206 195.814 345.675 194.536 349.301 194.822C350.218 194.838 351.009 195.04 351.707 195.15C352.38 195.352 352.961 195.495 353.407 195.671C353.836 195.856 354.164 195.999 354.408 196.109C354.618 196.218 354.736 196.277 354.728 196.277Z" fill="white"/>
<path d="M360.036 140.128C360.044 140.17 359.439 140.254 358.404 140.599C357.369 140.952 355.93 141.634 354.34 142.77C352.733 143.889 350.992 145.453 348.948 147.069C346.886 148.676 344.446 150.224 341.721 151.519C336.269 154.144 330.792 155.162 326.863 155.356C325.879 155.44 324.987 155.406 324.204 155.423C323.422 155.389 322.749 155.381 322.194 155.339C321.689 155.288 321.268 155.246 320.932 155.213C320.646 155.179 320.494 155.154 320.494 155.137C320.494 155.12 320.646 155.12 320.94 155.12C321.277 155.129 321.697 155.145 322.202 155.162C322.774 155.162 323.439 155.171 324.204 155.179C324.978 155.137 325.87 155.145 326.846 155.044C330.741 154.775 336.143 153.715 341.544 151.115C344.236 149.837 346.659 148.314 348.712 146.741C350.756 145.151 352.532 143.603 354.181 142.5C355.813 141.381 357.302 140.725 358.37 140.414C358.909 140.271 359.321 140.178 359.615 140.145C359.876 140.119 360.028 140.111 360.036 140.128Z" fill="white"/>
<path d="M250.135 159.621C250.135 159.637 249.975 159.612 249.672 159.553C249.378 159.486 248.923 159.419 248.368 159.259C247.249 158.931 245.659 158.342 243.859 157.282C242.058 156.23 240.073 154.732 237.969 152.983C235.858 151.241 233.603 149.239 231.02 147.455C228.429 145.68 225.686 144.41 223.036 143.795C220.394 143.139 217.929 142.996 215.876 143.114C213.824 143.215 212.175 143.56 211.064 143.846C209.945 144.132 209.339 144.351 209.323 144.309C209.314 144.292 209.466 144.233 209.752 144.115C210.038 144.006 210.458 143.837 211.014 143.678C212.124 143.341 213.773 142.946 215.851 142.794C217.929 142.643 220.436 142.744 223.129 143.392C225.829 143.997 228.639 145.284 231.264 147.085C233.881 148.894 236.135 150.913 238.23 152.663C240.317 154.43 242.26 155.944 244.019 157.012C245.777 158.089 247.325 158.72 248.419 159.091C249.521 159.427 250.143 159.578 250.135 159.621Z" fill="white"/>
<path d="M250.286 80.0907C250.295 80.1159 249.798 80.301 248.881 80.6039C248.427 80.7637 247.863 80.9404 247.199 81.1002C246.534 81.2685 245.785 81.4872 244.944 81.6387C244.103 81.8154 243.177 82.0005 242.168 82.1266C241.166 82.2949 240.09 82.3706 238.954 82.4716C236.682 82.6146 234.167 82.6146 231.55 82.379C228.934 82.1182 226.46 81.6471 224.256 81.0834C223.162 80.7721 222.111 80.4945 221.16 80.1411C220.192 79.8298 219.317 79.4765 218.527 79.1484C217.719 78.8455 217.029 78.4837 216.406 78.1977C215.784 77.9116 215.262 77.634 214.85 77.3984C214.009 76.9273 213.554 76.6581 213.571 76.6328C213.588 76.6076 214.068 76.8263 214.934 77.247C215.363 77.4657 215.885 77.7181 216.516 77.9789C217.138 78.2482 217.837 78.5847 218.644 78.8707C219.444 79.182 220.319 79.5186 221.278 79.8046C222.228 80.1411 223.272 80.4019 224.357 80.6964C226.553 81.2349 229.001 81.6892 231.592 81.9416C234.192 82.1771 236.674 82.1771 238.929 82.0678C240.056 81.9752 241.124 81.9163 242.117 81.7649C243.118 81.6555 244.035 81.4872 244.877 81.3358C245.726 81.2012 246.467 81.0077 247.131 80.8563C247.796 80.7216 248.36 80.5618 248.822 80.4356C249.756 80.1916 250.278 80.0654 250.286 80.0907Z" fill="white"/>
<path d="M355.258 79.8808C355.249 79.8892 355.123 79.8303 354.896 79.7125C354.627 79.5611 354.307 79.376 353.92 79.1489C353.508 78.8965 352.986 78.5936 352.355 78.2991C351.732 77.9963 351.043 77.6008 350.227 77.298C349.823 77.1297 349.402 76.953 348.965 76.7763C348.527 76.5997 348.048 76.4651 347.56 76.2968C346.6 75.9434 345.524 75.6995 344.413 75.405C342.158 74.917 339.643 74.5721 336.984 74.53C334.326 74.5216 331.802 74.8245 329.539 75.2704C328.42 75.5396 327.343 75.7668 326.375 76.1033C325.887 76.2631 325.408 76.3893 324.962 76.5576C324.524 76.7343 324.095 76.9025 323.691 77.0624C322.867 77.3569 322.177 77.7355 321.546 78.0299C320.915 78.316 320.393 78.602 319.973 78.8544C319.586 79.0731 319.258 79.2498 318.988 79.4012C318.761 79.519 318.635 79.5779 318.627 79.5695C318.618 79.5611 318.728 79.477 318.938 79.3255C319.199 79.1573 319.51 78.9553 319.889 78.703C320.301 78.4337 320.814 78.114 321.437 77.8028C322.059 77.4915 322.749 77.0876 323.574 76.7679C323.986 76.5997 324.407 76.423 324.852 76.2379C325.298 76.0528 325.778 75.9182 326.274 75.7499C327.25 75.3882 328.335 75.1526 329.463 74.8666C331.743 74.3954 334.3 74.0757 336.993 74.0841C339.685 74.1262 342.234 74.488 344.506 75.0012C345.633 75.304 346.71 75.5649 347.677 75.935C348.165 76.1117 348.645 76.2547 349.082 76.4482C349.52 76.6417 349.94 76.8268 350.344 77.0035C351.16 77.3316 351.85 77.7523 352.464 78.072C353.087 78.3917 353.592 78.7114 353.996 78.9974C354.366 79.2498 354.677 79.4601 354.929 79.6368C355.165 79.7798 355.266 79.864 355.258 79.8808Z" fill="white"/>
<path d="M303.819 22.731C303.828 22.7478 303.618 22.8656 303.214 23.0928C302.768 23.3367 302.179 23.6564 301.43 24.0603C299.874 24.8932 297.619 26.0794 294.792 27.4844C289.155 30.2692 281.23 34.0804 271.858 36.4529C267.172 37.6055 262.586 38.2281 258.405 38.3206C254.224 38.4131 250.455 38.0346 247.359 37.3699C244.263 36.7137 241.831 35.8808 240.207 35.1825C239.383 34.8628 238.786 34.5263 238.356 34.3412C237.936 34.1393 237.725 34.0215 237.734 34.0131C237.742 33.9962 237.969 34.0888 238.399 34.2655C238.836 34.4337 239.442 34.745 240.275 35.0311C241.907 35.6789 244.338 36.4613 247.417 37.067C250.497 37.6896 254.241 38.0346 258.397 37.9168C262.544 37.799 267.096 37.1764 271.748 36.0238C281.062 33.6681 288.979 29.9158 294.649 27.1984C297.442 25.8186 299.722 24.6997 301.346 23.9004C302.112 23.5302 302.717 23.2274 303.172 23.0086C303.592 22.8151 303.819 22.7226 303.819 22.731Z" fill="white"/>
<path d="M134.933 169.32L163.059 170.548L161.755 200.356L133.629 199.128L131.467 248.656L94.4743 247.041L96.6365 197.513L1.09644 193.34L1.17215 170.641L102.972 24.4199L141.184 26.0857L134.933 169.32ZM38.1733 165.097L97.9406 167.705L101.886 77.3641L100.986 77.0191L97.6461 83.4552L38.1733 165.097Z" fill="#00B307"/>
<g opacity="0.4">
<path opacity="0.4" d="M134.933 169.32L163.059 170.548L161.755 200.356L133.629 199.128L131.467 248.656L94.4743 247.041L96.6365 197.513L1.09644 193.34L1.17215 170.641L102.972 24.4199L141.184 26.0857L134.933 169.32ZM38.1733 165.097L97.9406 167.705L101.886 77.3641L100.986 77.0191L97.6461 83.4552L38.1733 165.097Z" fill="#1A1A1A"/>
</g>
<path d="M158.456 170.347L186.582 171.576L185.278 201.384L157.152 200.155L154.99 249.684L117.998 248.068L120.16 198.54L24.6196 194.367L24.6953 171.668L126.495 25.4473L164.707 27.1131L158.456 170.347ZM61.6881 166.124L121.455 168.732L125.401 78.3914L124.501 78.0465L121.161 84.4826L61.6881 166.124Z" fill="#00B307"/>
<path d="M25.1665 175.984C25.1749 176.009 24.8552 176.194 24.2578 176.497C23.6605 176.8 22.7855 177.22 21.7002 177.734C19.5296 178.752 16.5093 180.106 13.144 181.528C9.77876 182.95 6.69954 184.17 4.45322 185.019C3.33426 185.44 2.42564 185.777 1.78624 185.995C1.15525 186.214 0.793483 186.323 0.78507 186.29C0.776657 186.265 1.10477 186.096 1.72735 185.835C2.42564 185.541 3.30061 185.171 4.34384 184.733C6.64064 183.774 9.64415 182.521 12.9758 181.124C16.2906 179.711 19.2857 178.423 21.574 177.448C22.6089 177.01 23.4838 176.64 24.1821 176.345C24.8047 176.085 25.158 175.958 25.1665 175.984Z" fill="#00B307"/>
<path d="M38.863 150.793C38.8799 150.818 38.4256 151.054 37.5927 151.466C36.7597 151.87 35.5567 152.434 34.0591 153.123C31.064 154.495 26.8911 156.32 22.2554 158.281C17.6198 160.241 13.4048 161.957 10.3339 163.152C8.80275 163.749 7.54918 164.22 6.68263 164.532C5.81607 164.843 5.32811 165.003 5.31969 164.969C5.31128 164.944 5.774 164.725 6.62374 164.372C7.54077 163.985 8.75227 163.48 10.2162 162.857C13.3206 161.553 17.4767 159.803 22.0787 157.868C26.6723 155.917 30.8285 154.15 33.9245 152.837C35.3884 152.215 36.5999 151.702 37.5169 151.315C38.3751 150.944 38.8462 150.759 38.863 150.793Z" fill="#00B307"/>
<path d="M55.5802 128.323C55.5886 128.348 55.1175 128.592 54.251 128.996C53.3844 129.399 52.1224 129.972 50.5576 130.653C47.4279 132.024 43.0698 133.85 38.2407 135.81C33.4031 137.771 29.003 139.487 25.806 140.682C24.2075 141.279 22.9034 141.75 22.0032 142.061C21.103 142.373 20.5982 142.532 20.5814 142.499C20.573 142.474 21.0525 142.255 21.9443 141.901C22.895 141.514 24.1654 141.01 25.6966 140.387C28.9273 139.083 33.2769 137.333 38.0808 135.398C42.8763 133.446 47.2175 131.679 50.4398 130.367C51.971 129.744 53.233 129.231 54.1836 128.844C55.067 128.482 55.5634 128.297 55.5802 128.323Z" fill="#00B307"/>
<path d="M122.541 154.269C122.549 154.294 122.229 154.471 121.624 154.765C121.026 155.06 120.151 155.464 119.058 155.952C116.887 156.936 113.858 158.24 110.484 159.611C107.111 160.974 104.023 162.144 101.785 162.951C100.666 163.355 99.7493 163.675 99.1183 163.877C98.4873 164.087 98.1255 164.188 98.1171 164.154C98.1087 164.129 98.4452 163.969 99.0594 163.717C99.7577 163.431 100.641 163.078 101.676 162.657C103.981 161.74 106.993 160.528 110.325 159.199C113.648 157.836 116.651 156.608 118.94 155.666C119.983 155.245 120.858 154.892 121.556 154.606C122.179 154.362 122.524 154.244 122.541 154.269Z" fill="#00B307"/>
<path d="M119.815 200.492C119.823 200.517 119.512 200.694 118.931 200.988C118.351 201.282 117.501 201.686 116.45 202.174C114.346 203.159 111.41 204.463 108.137 205.826C104.865 207.189 101.878 208.358 99.6989 209.166C98.6136 209.569 97.7218 209.889 97.1077 210.099C96.4935 210.31 96.1486 210.411 96.1318 210.386C96.1233 210.36 96.443 210.2 97.0404 209.948C97.7218 209.662 98.5716 209.309 99.5812 208.888C101.819 207.963 104.738 206.759 107.969 205.43C111.183 204.067 114.094 202.839 116.323 201.897C117.325 201.476 118.174 201.123 118.864 200.837C119.47 200.584 119.806 200.466 119.815 200.492Z" fill="#00B307"/>
<path d="M119.428 216.695C119.436 216.72 119.125 216.897 118.544 217.191C117.964 217.486 117.114 217.889 116.063 218.377C113.959 219.362 111.023 220.666 107.75 222.029C104.478 223.392 101.491 224.561 99.312 225.369C98.2267 225.773 97.3349 226.092 96.7207 226.303C96.1065 226.513 95.7616 226.614 95.7448 226.589C95.7279 226.564 96.056 226.404 96.6534 226.151C97.3349 225.865 98.1846 225.512 99.1942 225.091C101.432 224.166 104.351 222.963 107.582 221.633C110.796 220.27 113.707 219.042 115.936 218.1C116.938 217.679 117.787 217.326 118.477 217.04C119.075 216.787 119.419 216.661 119.428 216.695Z" fill="#00B307"/>
<path d="M119.041 232.89C119.049 232.915 118.738 233.092 118.157 233.386C117.577 233.681 116.727 234.085 115.675 234.573C113.572 235.557 110.636 236.861 107.363 238.224C104.09 239.587 101.104 240.756 98.9248 241.564C97.8395 241.968 96.9477 242.288 96.3335 242.498C95.7193 242.708 95.3744 242.809 95.3576 242.784C95.3492 242.759 95.6689 242.599 96.2662 242.346C96.9477 242.06 97.7974 241.707 98.807 241.286C101.045 240.361 103.964 239.158 107.195 237.829C110.409 236.466 113.32 235.237 115.549 234.295C116.55 233.874 117.4 233.521 118.09 233.235C118.687 232.983 119.024 232.865 119.041 232.89Z" fill="#00B307"/>
<path d="M122.978 137.156C122.986 137.181 122.667 137.358 122.061 137.652C121.464 137.947 120.589 138.35 119.495 138.838C117.324 139.823 114.296 141.127 110.922 142.498C107.548 143.861 104.461 145.03 102.223 145.838C101.104 146.242 100.187 146.562 99.5558 146.764C98.9248 146.974 98.563 147.075 98.5546 147.041C98.5462 147.008 98.8827 146.856 99.4969 146.604C100.195 146.318 101.079 145.964 102.113 145.544C104.419 144.627 107.43 143.415 110.762 142.086C114.085 140.723 117.089 139.495 119.377 138.552C120.42 138.132 121.295 137.778 121.994 137.492C122.616 137.248 122.961 137.13 122.978 137.156Z" fill="#00B307"/>
<path d="M123.416 120.044C123.424 120.07 123.104 120.246 122.499 120.541C121.901 120.835 121.026 121.239 119.932 121.727C117.762 122.711 114.733 124.015 111.359 125.387C107.986 126.75 104.898 127.919 102.66 128.727C101.541 129.131 100.624 129.45 99.9933 129.652C99.3623 129.863 99.0005 129.964 98.9921 129.93C98.9837 129.905 99.3202 129.745 99.9344 129.492C100.633 129.206 101.516 128.853 102.551 128.432C104.856 127.515 107.868 126.304 111.2 124.975C114.523 123.612 117.526 122.383 119.815 121.441C120.858 121.02 121.733 120.667 122.431 120.381C123.054 120.137 123.399 120.019 123.416 120.044Z" fill="#00B307"/>
<path d="M123.853 102.931C123.861 102.957 123.559 103.125 122.986 103.403C122.414 103.68 121.582 104.067 120.547 104.538C118.477 105.472 115.6 106.726 112.386 108.03C109.172 109.334 106.227 110.436 104.091 111.202C103.022 111.589 102.155 111.883 101.55 112.085C100.944 112.279 100.607 112.379 100.599 112.346C100.591 112.321 100.91 112.169 101.491 111.925C102.164 111.656 102.997 111.311 103.981 110.916C106.185 110.041 109.046 108.888 112.218 107.626C115.373 106.33 118.233 105.153 120.42 104.252C121.405 103.857 122.238 103.512 122.911 103.243C123.508 103.016 123.836 102.898 123.853 102.931Z" fill="#00B307"/>
<path d="M125.788 86.9381C125.83 87.0475 123.946 87.8552 121.573 88.7385C119.201 89.6135 117.249 90.2361 117.207 90.1267C117.165 90.0173 119.049 89.2097 121.422 88.3263C123.786 87.4429 125.746 86.8203 125.788 86.9381Z" fill="#00B307"/>
<path d="M72.2633 105.034C72.2718 105.059 71.8006 105.303 70.9341 105.707C70.0675 106.111 68.8055 106.683 67.2407 107.364C64.111 108.735 59.7529 110.561 54.9238 112.521C50.0862 114.482 45.6861 116.198 42.4891 117.393C40.8906 117.99 39.5866 118.461 38.6863 118.772C37.7861 119.084 37.2813 119.244 37.2645 119.21C37.2561 119.185 37.7356 118.966 38.6274 118.613C39.5781 118.226 40.8485 117.721 42.3797 117.098C45.6104 115.794 49.96 114.044 54.7639 112.109C59.5594 110.157 63.9006 108.39 67.1229 107.078C68.6541 106.455 69.9161 105.942 70.8668 105.555C71.7586 105.185 72.2549 105.008 72.2633 105.034Z" fill="#00B307"/>
<path d="M88.9553 81.7386C88.9637 81.7638 88.4925 82.0078 87.626 82.4117C86.7594 82.8155 85.4974 83.3876 83.9326 84.0691C80.8029 85.4404 76.4448 87.2661 71.6157 89.2264C66.7781 91.1866 62.378 92.9029 59.181 94.0976C57.5825 94.6949 56.2784 95.1661 55.3782 95.4773C54.478 95.7886 53.9732 95.9485 53.9564 95.9148C53.948 95.8896 54.4275 95.6708 55.3193 95.3175C56.27 94.9305 57.5404 94.4257 59.0716 93.8031C62.3023 92.4991 66.6519 90.7491 71.4558 88.8141C76.2513 86.8622 80.5925 85.0955 83.8148 83.783C85.346 83.1604 86.608 82.6472 87.5587 82.2602C88.442 81.8985 88.9384 81.7134 88.9553 81.7386Z" fill="#00B307"/>
<path d="M104.377 58.4492C104.385 58.4745 103.914 58.7184 103.047 59.1223C102.181 59.5261 100.919 60.0982 99.354 60.7797C96.2243 62.151 91.8662 63.9767 87.0371 65.9369C82.1995 67.8972 77.7994 69.6135 74.6024 70.8082C73.0039 71.4055 71.6998 71.8766 70.7996 72.1879C69.8994 72.4992 69.3946 72.6591 69.3778 72.6254C69.3694 72.6002 69.8489 72.3814 70.7407 72.0281C71.6914 71.6411 72.9618 71.1363 74.493 70.5137C77.7237 69.2097 82.0733 67.4597 86.8772 65.5247C91.6727 63.5728 96.0139 61.8061 99.2362 60.4936C100.767 59.871 102.029 59.3578 102.98 58.9708C103.872 58.6006 104.368 58.4156 104.377 58.4492Z" fill="#00B307"/>
<path d="M120.429 36.0531C120.437 36.0783 119.966 36.3223 119.1 36.7261C118.233 37.1299 116.971 37.702 115.406 38.3835C112.277 39.7549 107.918 41.5805 103.089 43.5408C98.2517 45.5011 93.8516 47.2174 90.6546 48.412C89.0561 49.0094 87.7521 49.4805 86.8519 49.7918C85.9517 50.1031 85.4469 50.2629 85.43 50.2293C85.4216 50.204 85.9012 49.9853 86.793 49.6319C87.7437 49.2449 89.0141 48.7401 90.5453 48.1176C93.7759 46.8135 98.1255 45.0636 102.929 43.1285C107.725 41.1767 112.066 39.4099 115.288 38.0975C116.82 37.4749 118.082 36.9617 119.032 36.5747C119.916 36.2129 120.412 36.0278 120.429 36.0531Z" fill="#00B307"/>
<path d="M163.016 70.2721C163.025 70.2805 162.857 70.474 162.529 70.8274C162.2 71.1807 161.712 71.7024 161.006 72.2997C159.634 73.5196 157.472 75.1349 154.469 76.5231C151.474 77.9029 147.612 78.9882 143.229 79.0891C141.041 79.1312 138.736 78.8956 136.422 78.3235C134.1 77.7767 131.812 76.8344 129.54 75.7575C125.014 73.5532 120.993 70.9536 117.064 69.1447C113.16 67.2938 109.307 66.3768 106.051 66.2674C102.778 66.1497 100.178 66.89 98.5379 67.6724C97.7218 68.0763 97.0992 68.4296 96.7122 68.7157C96.3168 68.9849 96.098 69.1195 96.0896 69.1111C96.0812 69.1027 96.2747 68.9428 96.6617 68.6484C97.0319 68.3371 97.6461 67.9585 98.4621 67.521C100.103 66.6797 102.744 65.8804 106.059 65.9562C109.366 66.0319 113.278 66.9237 117.24 68.7746C121.211 70.5834 125.25 73.1747 129.734 75.3621C131.98 76.4306 134.243 77.3644 136.523 77.9113C138.795 78.475 141.058 78.719 143.22 78.6853C147.536 78.6096 151.364 77.5747 154.334 76.2455C157.321 74.9162 159.491 73.3513 160.888 72.1819C161.603 71.6098 162.108 71.105 162.461 70.7769C162.815 70.432 163.008 70.2637 163.016 70.2721Z" fill="white"/>
<path d="M151.305 28.6763C151.322 28.7015 150.935 28.9203 150.237 29.2989C149.538 29.6775 148.495 30.1739 147.183 30.7291C145.87 31.2928 144.272 31.8649 142.471 32.4118C140.663 32.9418 138.643 33.4213 136.498 33.7831C134.353 34.1281 132.283 34.3047 130.398 34.3805C128.514 34.4309 126.814 34.3973 125.401 34.2795C123.979 34.1701 122.835 34.0355 122.053 33.8925C121.27 33.7579 120.841 33.6737 120.841 33.6401C120.849 33.6064 121.287 33.6401 122.069 33.7242C122.86 33.8168 124.004 33.9009 125.409 33.9682C126.823 34.0439 128.505 34.0523 130.373 33.9766C132.241 33.8757 134.285 33.6906 136.414 33.3456C138.542 32.9923 140.545 32.5211 142.345 32.0163C144.137 31.4947 145.736 30.9563 147.048 30.4347C148.369 29.9215 149.421 29.4756 150.144 29.139C150.885 28.8193 151.288 28.6511 151.305 28.6763Z" fill="white"/>
<path d="M91.5718 122.112C91.5466 122.129 91.2857 121.826 90.8146 121.263C90.293 120.64 89.6199 119.841 88.8207 118.898C87.1212 116.921 84.6898 114.246 81.7789 111.537C80.3234 110.182 78.8427 109.005 77.3619 108.138C75.8896 107.271 74.4257 106.75 73.1554 106.506C70.5978 106.001 68.9908 106.582 68.9824 106.481C68.9824 106.464 69.075 106.43 69.2601 106.371C69.4451 106.312 69.7228 106.245 70.0846 106.178C70.8081 106.052 71.8934 105.984 73.2058 106.203C74.5099 106.413 76.0327 106.918 77.5554 107.793C79.0782 108.651 80.601 109.854 82.0649 111.217C84.9927 113.952 87.3989 116.669 89.0478 118.705C89.8723 119.723 90.5117 120.573 90.9408 121.17C91.3783 121.751 91.597 122.095 91.5718 122.112Z" fill="white"/>
<path d="M158.684 147.53C158.692 147.547 158.583 147.631 158.356 147.782C158.129 147.934 157.809 148.169 157.355 148.422C156.471 148.96 155.142 149.65 153.409 150.298C149.985 151.61 144.752 152.561 139.165 151.425C133.587 150.281 129.145 147.345 126.512 144.796C125.174 143.517 124.223 142.364 123.618 141.523C123.306 141.111 123.104 140.766 122.953 140.539C122.81 140.311 122.734 140.185 122.751 140.177C122.785 140.152 123.113 140.614 123.752 141.414C124.392 142.213 125.368 143.332 126.714 144.568C129.372 147.034 133.764 149.877 139.241 150.996C144.718 152.115 149.875 151.232 153.291 150.012C155.016 149.406 156.353 148.767 157.254 148.279C158.171 147.791 158.659 147.505 158.684 147.53Z" fill="white"/>
<path d="M183.191 200.802C183.191 200.802 183.099 200.676 182.947 200.415C182.787 200.138 182.569 199.751 182.283 199.254C181.744 198.203 180.76 196.764 179.405 194.989C179.044 194.56 178.665 194.114 178.261 193.634C178.059 193.399 177.857 193.155 177.647 192.911C177.411 192.684 177.176 192.448 176.932 192.212C176.444 191.733 175.939 191.236 175.418 190.723C174.854 190.252 174.257 189.764 173.651 189.251C171.169 187.282 168.098 185.314 164.413 183.757C160.737 182.218 156.446 181.065 151.751 180.821C147.065 180.552 142.009 181.275 137.087 183.177C132.165 185.112 127.412 188.039 122.381 190.866C119.865 192.28 117.257 193.659 114.481 194.778C111.713 195.906 108.76 196.772 105.689 197.084C102.618 197.437 99.5475 197.151 96.6113 196.537C93.6751 195.914 90.8903 194.879 88.257 193.685C82.9735 191.279 78.3463 188.107 74.0303 185.036C69.7059 181.965 65.6339 179.004 61.5704 176.631C57.5152 174.267 53.4853 172.45 49.5984 171.516C45.7115 170.591 42.0518 170.439 38.9053 170.809C35.7503 171.154 33.1254 172.054 31.1315 173.056C29.1123 174.04 27.8083 175.209 26.8997 175.958C26.4958 176.362 26.1761 176.682 25.9574 176.909C25.7386 177.119 25.6208 177.22 25.6208 177.22C25.6208 177.22 25.7134 177.102 25.9237 176.875C26.1425 176.64 26.4453 176.312 26.8408 175.891C27.7326 175.117 29.0282 173.914 31.0558 172.904C33.0497 171.869 35.6914 170.935 38.8716 170.565C42.0434 170.161 45.7368 170.296 49.6657 171.213C53.5947 172.139 57.6667 173.947 61.7471 176.312C65.8443 178.684 69.9331 181.645 74.2575 184.699C78.5818 187.753 83.1922 190.908 88.4337 193.289C91.0502 194.467 93.8013 195.502 96.7038 196.108C99.598 196.713 102.618 196.991 105.639 196.646C108.659 196.335 111.57 195.485 114.313 194.366C117.064 193.256 119.655 191.884 122.171 190.479C127.193 187.669 131.963 184.742 136.936 182.79C138.189 182.327 139.418 181.873 140.688 181.578C141.319 181.418 141.933 181.225 142.564 181.099C143.195 180.998 143.826 180.888 144.449 180.787C146.939 180.375 149.404 180.35 151.768 180.451C156.505 180.72 160.829 181.898 164.522 183.471C168.224 185.053 171.303 187.064 173.794 189.057C174.408 189.571 174.997 190.067 175.561 190.547C176.082 191.068 176.587 191.581 177.075 192.061C177.319 192.305 177.555 192.541 177.782 192.768C177.992 193.02 178.194 193.264 178.396 193.508C178.791 193.988 179.17 194.442 179.532 194.879C180.869 196.68 181.828 198.144 182.35 199.212C182.619 199.725 182.83 200.112 182.981 200.398C183.132 200.659 183.191 200.802 183.191 200.802Z" fill="white"/>
<path d="M157.767 235.944C157.767 235.961 157.624 235.995 157.338 236.054C157.001 236.121 156.597 236.197 156.092 236.289C155.554 236.399 154.889 236.508 154.115 236.575C153.341 236.651 152.458 236.786 151.474 236.802C150.977 236.828 150.464 236.845 149.934 236.87C149.396 236.887 148.84 236.861 148.26 236.853C147.099 236.861 145.87 236.744 144.575 236.643C141.992 236.357 139.165 235.852 136.271 235.027C133.385 234.169 130.735 233.075 128.396 231.931C127.244 231.317 126.141 230.762 125.174 230.131C124.686 229.82 124.198 229.55 123.752 229.247C123.315 228.945 122.894 228.642 122.49 228.364C121.674 227.817 120.993 227.237 120.387 226.749C119.764 226.269 119.268 225.823 118.872 225.445C118.502 225.1 118.199 224.814 117.955 224.578C117.745 224.376 117.644 224.267 117.653 224.258C117.661 224.25 117.787 224.334 118.014 224.519C118.275 224.738 118.595 224.999 118.99 225.327C119.403 225.689 119.916 226.118 120.547 226.572C121.169 227.035 121.851 227.598 122.675 228.12C123.079 228.398 123.508 228.675 123.946 228.978C124.392 229.273 124.88 229.542 125.367 229.836C126.343 230.45 127.437 230.989 128.581 231.586C130.903 232.705 133.537 233.782 136.397 234.623C139.258 235.44 142.059 235.953 144.617 236.256C145.904 236.365 147.124 236.5 148.268 236.508C148.84 236.516 149.396 236.558 149.926 236.55C150.456 236.533 150.969 236.525 151.457 236.508C152.433 236.508 153.316 236.399 154.09 236.348C154.864 236.298 155.529 236.214 156.067 236.138C156.572 236.079 156.984 236.02 157.321 235.978C157.607 235.936 157.758 235.927 157.767 235.944Z" fill="white"/>
<path d="M500.284 169.665L528.3 166.922L531.202 196.612L503.186 199.355L508.016 248.69L471.166 252.291L466.337 202.956L371.158 212.261L368.037 189.781L448.257 30.6958L486.326 26.9688L500.284 169.665ZM403.886 179.096L463.426 173.274L454.626 83.2782L453.683 83.0678L451.277 89.9162L403.886 179.096Z" fill="#00B307"/>
<g opacity="0.4">
<path opacity="0.4" d="M500.284 169.665L528.3 166.922L531.202 196.612L503.186 199.355L508.016 248.69L471.166 252.291L466.337 202.956L371.158 212.261L368.037 189.781L448.257 30.6958L486.326 26.9688L500.284 169.665ZM403.886 179.096L463.426 173.274L454.626 83.2782L453.683 83.0678L451.277 89.9162L403.886 179.096Z" fill="#1A1A1A"/>
</g>
<path d="M523.714 167.377L551.73 164.634L554.633 194.324L526.617 197.067L531.446 246.402L494.597 250.003L489.767 200.668L394.589 209.973L391.468 187.493L471.687 28.4081L509.757 24.6895L523.714 167.377ZM427.325 176.8L486.865 170.978L478.065 80.9821L477.122 80.7633L474.716 87.6116L427.325 176.8Z" fill="#00B307"/>
<path d="M392.545 191.708C392.562 191.733 392.267 191.96 391.712 192.339C391.165 192.726 390.357 193.264 389.356 193.92C387.354 195.233 384.552 196.999 381.422 198.884C378.284 200.769 375.415 202.409 373.312 203.562C372.26 204.142 371.411 204.597 370.813 204.899C370.216 205.202 369.88 205.362 369.863 205.337C369.846 205.312 370.157 205.101 370.729 204.756C371.377 204.369 372.193 203.881 373.161 203.301C375.298 202.031 378.099 200.365 381.195 198.514C384.274 196.646 387.068 194.955 389.196 193.668C390.164 193.087 390.971 192.599 391.628 192.204C392.208 191.851 392.536 191.682 392.545 191.708Z" fill="#00B307"/>
<path d="M402.556 164.836C402.573 164.861 402.161 165.164 401.395 165.677C400.63 166.19 399.519 166.922 398.131 167.814C395.355 169.589 391.485 171.987 387.177 174.578C382.861 177.169 378.932 179.458 376.063 181.082C374.625 181.889 373.455 182.537 372.648 182.966C371.831 183.395 371.377 183.622 371.36 183.597C371.344 183.572 371.773 183.294 372.563 182.823C373.422 182.31 374.549 181.637 375.912 180.821C378.798 179.096 382.676 176.774 386.958 174.216C391.232 171.642 395.094 169.303 397.98 167.57C399.343 166.746 400.47 166.072 401.32 165.551C402.094 165.063 402.54 164.81 402.556 164.836Z" fill="#00B307"/>
<path d="M415.95 140.244C415.967 140.269 415.53 140.572 414.73 141.094C413.931 141.615 412.762 142.356 411.306 143.256C408.395 145.048 404.34 147.471 399.839 150.096C395.329 152.712 391.215 155.034 388.212 156.666C386.714 157.483 385.486 158.13 384.636 158.568C383.787 159.005 383.307 159.232 383.29 159.207C383.273 159.182 383.728 158.904 384.552 158.425C385.444 157.912 386.622 157.23 388.052 156.397C391.072 154.656 395.128 152.308 399.612 149.717C404.088 147.109 408.134 144.753 411.146 142.995C412.577 142.162 413.754 141.472 414.638 140.959C415.471 140.471 415.933 140.219 415.95 140.244Z" fill="#00B307"/>
<path d="M485.897 156.514C485.914 156.539 485.611 156.758 485.064 157.128C484.509 157.499 483.701 158.029 482.692 158.668C480.673 159.947 477.863 161.663 474.716 163.497C471.57 165.323 468.676 166.913 466.572 168.032C465.521 168.587 464.662 169.033 464.065 169.327C463.468 169.622 463.131 169.773 463.114 169.748C463.098 169.723 463.409 169.521 463.981 169.176C464.637 168.797 465.453 168.318 466.421 167.763C468.566 166.526 471.385 164.911 474.497 163.119C477.593 161.301 480.395 159.661 482.532 158.407C483.5 157.843 484.316 157.372 484.972 156.985C485.552 156.657 485.88 156.489 485.897 156.514Z" fill="#00B307"/>
<path d="M489.7 202.653C489.717 202.678 489.431 202.897 488.892 203.267C488.362 203.637 487.58 204.159 486.604 204.79C484.661 206.06 481.935 207.76 478.889 209.577C475.844 211.394 473.042 212.967 471.006 214.078C469.988 214.633 469.155 215.071 468.575 215.365C467.994 215.66 467.666 215.811 467.649 215.777C467.632 215.752 467.935 215.55 468.49 215.214C469.13 214.835 469.921 214.364 470.855 213.809C472.941 212.58 475.658 210.982 478.67 209.207C481.665 207.406 484.366 205.783 486.444 204.537C487.378 203.982 488.169 203.511 488.808 203.132C489.364 202.796 489.683 202.628 489.7 202.653Z" fill="#00B307"/>
<path d="M491.593 218.747C491.61 218.772 491.324 218.991 490.785 219.361C490.255 219.731 489.473 220.253 488.497 220.884C486.554 222.154 483.828 223.853 480.782 225.671C477.737 227.488 474.935 229.061 472.899 230.172C471.881 230.727 471.048 231.164 470.468 231.459C469.887 231.753 469.559 231.905 469.542 231.871C469.525 231.838 469.828 231.644 470.383 231.307C471.023 230.929 471.814 230.458 472.748 229.902C474.834 228.674 477.551 227.076 480.563 225.3C483.559 223.5 486.259 221.876 488.337 220.631C489.271 220.076 490.062 219.605 490.701 219.226C491.257 218.89 491.576 218.721 491.593 218.747Z" fill="#00B307"/>
<path d="M493.486 234.84C493.503 234.866 493.217 235.084 492.678 235.455C492.148 235.825 491.366 236.346 490.39 236.977C488.446 238.248 485.721 239.947 482.675 241.764C479.629 243.582 476.828 245.155 474.792 246.265C473.774 246.821 472.941 247.258 472.36 247.553C471.78 247.847 471.452 247.999 471.435 247.965C471.418 247.94 471.721 247.738 472.276 247.401C472.916 247.023 473.707 246.551 474.64 245.996C476.727 244.768 479.444 243.169 482.456 241.394C485.451 239.594 488.152 237.97 490.23 236.725C491.164 236.17 491.955 235.699 492.594 235.32C493.149 234.983 493.469 234.815 493.486 234.84Z" fill="#00B307"/>
<path d="M483.92 139.502C483.937 139.528 483.634 139.746 483.087 140.117C482.532 140.487 481.724 141.017 480.715 141.656C478.696 142.935 475.886 144.651 472.739 146.485C469.593 148.311 466.699 149.901 464.595 151.02C463.544 151.575 462.685 152.021 462.088 152.316C461.491 152.61 461.154 152.762 461.137 152.736C461.121 152.711 461.432 152.509 462.004 152.164C462.66 151.786 463.476 151.306 464.444 150.751C466.589 149.514 469.408 147.899 472.52 146.107C475.617 144.289 478.418 142.649 480.555 141.395C481.523 140.832 482.339 140.361 482.995 139.974C483.575 139.654 483.903 139.477 483.92 139.502Z" fill="#00B307"/>
<path d="M481.943 122.501C481.96 122.526 481.657 122.745 481.11 123.115C480.555 123.485 479.747 124.015 478.738 124.654C476.718 125.933 473.908 127.649 470.762 129.483C467.615 131.309 464.721 132.899 462.618 134.018C461.566 134.573 460.708 135.019 460.111 135.314C459.513 135.608 459.177 135.76 459.16 135.734C459.143 135.709 459.455 135.507 460.027 135.162C460.683 134.784 461.499 134.313 462.466 133.749C464.612 132.512 467.43 130.897 470.543 129.105C473.639 127.288 476.441 125.647 478.578 124.393C479.545 123.83 480.361 123.359 481.018 122.972C481.606 122.644 481.935 122.475 481.943 122.501Z" fill="#00B307"/>
<path d="M479.975 105.497C479.991 105.522 479.705 105.732 479.184 106.086C478.654 106.439 477.888 106.944 476.929 107.558C475.011 108.778 472.335 110.418 469.34 112.16C466.337 113.901 463.586 115.407 461.575 116.468C460.565 116.998 459.749 117.418 459.177 117.696C458.605 117.973 458.285 118.116 458.269 118.091C458.252 118.066 458.546 117.873 459.093 117.544C459.724 117.183 460.498 116.728 461.423 116.19C463.476 115.012 466.16 113.472 469.122 111.773C472.066 110.048 474.725 108.483 476.769 107.28C477.686 106.75 478.469 106.296 479.1 105.926C479.646 105.631 479.958 105.471 479.975 105.497Z" fill="#00B307"/>
<path d="M479.638 89.3847C479.697 89.4941 477.938 90.5542 475.717 91.7573C473.496 92.9603 471.645 93.8521 471.586 93.7428C471.528 93.6334 473.286 92.5733 475.507 91.3703C477.728 90.1756 479.579 89.2838 479.638 89.3847Z" fill="#00B307"/>
<path d="M429.192 114.836C429.209 114.861 428.772 115.164 427.972 115.685C427.173 116.207 426.004 116.947 424.548 117.848C421.637 119.64 417.582 122.063 413.081 124.688C408.572 127.304 404.458 129.626 401.454 131.258C399.957 132.074 398.728 132.722 397.879 133.16C397.029 133.597 396.549 133.824 396.532 133.799C396.516 133.774 396.97 133.496 397.794 133.017C398.686 132.503 399.864 131.822 401.294 130.989C404.315 129.247 408.37 126.9 412.854 124.309C417.33 121.701 421.377 119.345 424.388 117.587C425.819 116.754 426.997 116.064 427.88 115.551C428.713 115.063 429.184 114.81 429.192 114.836Z" fill="#00B307"/>
<path d="M442.443 89.4275C442.46 89.4527 442.022 89.7556 441.223 90.2772C440.424 90.7989 439.255 91.5392 437.799 92.4394C434.888 94.2314 430.833 96.6544 426.332 99.2793C421.822 101.896 417.708 104.218 414.705 105.85C413.207 106.666 411.979 107.314 411.129 107.751C410.28 108.189 409.8 108.416 409.783 108.391C409.766 108.366 410.221 108.088 411.045 107.608C411.937 107.095 413.115 106.414 414.545 105.581C417.565 103.839 421.621 101.492 426.105 98.9008C430.581 96.2927 434.627 93.937 437.639 92.1786C439.069 91.3457 440.247 90.6558 441.131 90.1426C441.964 89.6547 442.426 89.4023 442.443 89.4275Z" fill="#00B307"/>
<path d="M454.44 64.197C454.457 64.2223 454.02 64.5251 453.221 65.0468C452.421 65.5684 451.252 66.3087 449.796 67.209C446.885 69.001 442.83 71.424 438.329 74.0489C433.82 76.6654 429.706 78.9874 426.702 80.6196C425.205 81.4357 423.976 82.0835 423.127 82.521C422.277 82.9584 421.797 83.1856 421.78 83.1604C421.764 83.1351 422.218 82.8575 423.042 82.3779C423.934 81.8647 425.112 81.1833 426.542 80.3504C429.563 78.6088 433.618 76.2615 438.102 73.6703C442.578 71.0622 446.625 68.7065 449.637 66.9482C451.067 66.1152 452.245 65.4254 453.136 64.9122C453.953 64.4242 454.424 64.1718 454.44 64.197Z" fill="#00B307"/>
<path d="M467.178 39.7654C467.195 39.7906 466.757 40.0935 465.958 40.6151C465.159 41.1368 463.989 41.8771 462.534 42.7773C459.623 44.5693 455.568 46.9923 451.067 49.6172C446.557 52.2337 442.443 54.5558 439.44 56.1879C437.942 57.004 436.714 57.6518 435.864 58.0893C435.014 58.5268 434.535 58.754 434.518 58.7287C434.501 58.7035 434.956 58.4258 435.78 57.9463C436.672 57.4331 437.85 56.7516 439.28 55.9187C442.3 54.1772 446.355 51.8299 450.84 49.2387C455.315 46.6306 459.362 44.2749 462.374 42.5165C463.804 41.6836 464.982 40.9937 465.865 40.4805C466.698 39.9926 467.161 39.7402 467.178 39.7654Z" fill="#00B307"/>
<path d="M514.157 67.6546C514.166 67.663 514.031 67.8733 513.745 68.2687C513.467 68.6641 513.055 69.2531 512.441 69.9429C511.255 71.3395 509.336 73.2493 506.56 75.0413C503.792 76.8249 500.116 78.4487 495.791 79.1638C493.629 79.5171 491.315 79.6013 488.951 79.3657C486.579 79.147 484.173 78.5412 481.783 77.7924C476.996 76.2444 472.647 74.2337 468.499 72.9969C464.376 71.7097 460.431 71.3479 457.183 71.7013C453.927 72.0462 451.454 73.14 449.939 74.1495C449.191 74.6627 448.627 75.1002 448.282 75.4368C447.929 75.7565 447.727 75.9247 447.718 75.9163C447.71 75.9079 447.878 75.7228 448.223 75.3779C448.551 75.0161 449.098 74.5534 449.847 74.0065C451.353 72.9465 453.851 71.777 457.149 71.39C460.431 70.9946 464.435 71.3311 468.617 72.6099C472.806 73.8382 477.164 75.8406 481.918 77.3718C484.299 78.1206 486.663 78.7179 489.002 78.9366C491.332 79.1806 493.612 79.0965 495.741 78.7684C500.006 78.0869 503.641 76.522 506.4 74.7889C509.168 73.0474 511.095 71.1965 512.323 69.842C512.954 69.1773 513.383 68.6052 513.678 68.2266C513.981 67.8396 514.149 67.6461 514.157 67.6546Z" fill="white"/>
<path d="M496.708 28.121C496.725 28.1463 496.38 28.4155 495.741 28.8866C495.101 29.3662 494.142 29.9972 492.922 30.7291C491.702 31.4695 490.205 32.2603 488.497 33.0596C486.781 33.8336 484.854 34.5992 482.776 35.2554C480.698 35.8948 478.679 36.366 476.819 36.7025C474.96 37.0222 473.278 37.2241 471.856 37.3082C470.434 37.4008 469.281 37.426 468.49 37.3924C467.691 37.3755 467.254 37.3503 467.254 37.3167C467.254 37.283 467.691 37.2578 468.482 37.2241C469.273 37.1989 470.417 37.1316 471.83 36.9969C473.244 36.8707 474.91 36.6436 476.744 36.3071C478.578 35.9453 480.58 35.4742 482.641 34.8348C484.694 34.1869 486.612 33.4382 488.329 32.6894C490.028 31.9238 491.534 31.1582 492.762 30.4599C493.991 29.77 494.975 29.1727 495.64 28.7436C496.313 28.323 496.691 28.0958 496.708 28.121Z" fill="white"/>
<path d="M450.713 129.028C450.688 129.053 450.385 128.784 449.847 128.296C449.241 127.749 448.467 127.059 447.542 126.235C445.581 124.519 442.796 122.213 439.532 119.933C437.9 118.798 436.268 117.839 434.686 117.191C433.104 116.543 431.582 116.232 430.295 116.164C427.686 116.021 426.18 116.821 426.164 116.72C426.155 116.703 426.248 116.652 426.424 116.568C426.601 116.484 426.862 116.375 427.215 116.265C427.914 116.038 428.982 115.819 430.311 115.853C431.632 115.878 433.214 116.164 434.846 116.812C436.478 117.452 438.152 118.419 439.793 119.563C443.083 121.852 445.842 124.207 447.76 125.991C448.719 126.883 449.468 127.632 449.973 128.162C450.469 128.7 450.739 129.003 450.713 129.028Z" fill="white"/>
<path d="M520.728 144.761C520.736 144.77 520.635 144.871 520.442 145.056C520.24 145.232 519.954 145.518 519.542 145.83C518.742 146.486 517.523 147.352 515.899 148.244C512.693 150.028 507.645 151.702 501.958 151.366C496.271 151.021 491.467 148.732 488.497 146.578C486.991 145.502 485.889 144.492 485.174 143.743C484.804 143.381 484.56 143.062 484.375 142.868C484.198 142.658 484.114 142.549 484.122 142.54C484.147 142.515 484.543 142.927 485.292 143.625C486.032 144.332 487.159 145.3 488.674 146.326C491.652 148.396 496.397 150.592 501.983 150.928C507.57 151.265 512.542 149.666 515.756 147.975C517.379 147.134 518.616 146.309 519.441 145.703C520.265 145.089 520.711 144.728 520.728 144.761Z" fill="white"/>
<path d="M552.496 194.046C552.496 194.046 552.387 193.928 552.202 193.692C552.008 193.44 551.73 193.087 551.377 192.632C550.696 191.673 549.518 190.386 547.928 188.813C547.507 188.442 547.069 188.047 546.607 187.635C546.371 187.433 546.136 187.214 545.892 187.004C545.631 186.81 545.362 186.617 545.092 186.406C544.546 186.003 543.973 185.582 543.385 185.144C542.754 184.757 542.106 184.354 541.424 183.941C538.69 182.343 535.375 180.82 531.505 179.802C527.643 178.793 523.235 178.254 518.557 178.675C513.879 179.062 508.975 180.492 504.373 183.066C499.771 185.675 495.48 189.242 490.895 192.742C488.598 194.492 486.209 196.225 483.626 197.731C481.043 199.237 478.241 200.507 475.246 201.256C472.259 202.038 469.172 202.19 466.185 201.988C463.19 201.786 460.287 201.146 457.511 200.339C451.942 198.698 446.919 196.208 442.208 193.776C437.496 191.345 433.046 188.981 428.688 187.206C424.338 185.431 420.089 184.202 416.118 183.824C412.139 183.453 408.496 183.815 405.434 184.631C402.354 185.414 399.881 186.676 398.055 187.946C396.196 189.2 395.069 190.546 394.278 191.412C393.933 191.875 393.664 192.228 393.478 192.489C393.293 192.733 393.192 192.851 393.192 192.851C393.192 192.851 393.268 192.716 393.445 192.464C393.63 192.203 393.882 191.833 394.219 191.362C394.993 190.478 396.112 189.099 397.971 187.811C399.797 186.499 402.287 185.203 405.383 184.396C408.471 183.554 412.147 183.167 416.16 183.521C420.182 183.883 424.464 185.102 428.839 186.869C433.222 188.636 437.698 190.992 442.41 193.415C447.121 195.829 452.127 198.303 457.646 199.926C460.397 200.726 463.274 201.357 466.227 201.559C469.172 201.752 472.209 201.601 475.154 200.835C478.098 200.103 480.858 198.85 483.424 197.36C485.99 195.871 488.362 194.155 490.659 192.405C495.236 188.914 499.552 185.346 504.196 182.713C505.365 182.082 506.526 181.46 507.738 180.988C508.335 180.744 508.924 180.467 509.521 180.248C510.136 180.054 510.741 179.869 511.339 179.676C513.753 178.919 516.185 178.549 518.54 178.313C523.269 177.909 527.711 178.473 531.598 179.508C535.493 180.559 538.816 182.107 541.559 183.731C542.232 184.152 542.888 184.564 543.519 184.959C544.108 185.405 544.68 185.834 545.227 186.247C545.496 186.449 545.765 186.65 546.026 186.852C546.27 187.071 546.506 187.29 546.741 187.492C547.204 187.912 547.642 188.308 548.062 188.686C549.644 190.285 550.797 191.597 551.461 192.573C551.798 193.036 552.067 193.398 552.252 193.659C552.412 193.919 552.496 194.046 552.496 194.046Z" fill="white"/>
<path d="M532.254 232.42C532.262 232.436 532.119 232.495 531.85 232.588C531.531 232.697 531.135 232.832 530.656 233C530.134 233.185 529.495 233.387 528.737 233.564C527.98 233.749 527.122 234.001 526.154 234.161C525.667 234.254 525.162 234.346 524.64 234.447C524.11 234.54 523.555 234.59 522.983 234.666C521.839 234.834 520.602 234.893 519.298 234.977C516.698 235.061 513.829 234.96 510.851 234.548C507.873 234.102 505.096 233.396 502.623 232.588C501.403 232.142 500.225 231.747 499.173 231.259C498.643 231.023 498.122 230.821 497.642 230.577C497.163 230.333 496.708 230.098 496.262 229.879C495.371 229.458 494.622 228.97 493.949 228.583C493.267 228.196 492.712 227.826 492.266 227.506C491.854 227.212 491.509 226.976 491.231 226.774C490.996 226.606 490.878 226.505 490.886 226.497C490.895 226.488 491.029 226.556 491.282 226.699C491.568 226.875 491.921 227.094 492.359 227.355C492.821 227.649 493.385 228.003 494.075 228.365C494.756 228.735 495.514 229.197 496.405 229.601C496.843 229.812 497.306 230.039 497.785 230.266C498.265 230.493 498.786 230.687 499.316 230.914C500.368 231.385 501.529 231.763 502.749 232.193C505.206 232.975 507.965 233.665 510.918 234.102C513.871 234.506 516.706 234.624 519.289 234.565C520.577 234.498 521.805 234.456 522.941 234.296C523.513 234.228 524.068 234.186 524.59 234.102C525.111 234.018 525.616 233.926 526.104 233.85C527.072 233.715 527.93 233.48 528.687 233.32C529.452 233.168 530.092 232.983 530.622 232.832C531.11 232.697 531.514 232.588 531.842 232.504C532.103 232.436 532.254 232.403 532.254 232.42Z" fill="white"/>
<path d="M357.058 109.199L351.169 108.282L314.681 96.512L293.337 90.3451C288.348 88.6204 281.886 88.0231 274.87 91.5987C264.791 96.7391 236.968 122.626 236.968 122.626L257 143.281L247.56 185.078C258.119 215.096 278.79 218.537 278.79 218.537C278.79 218.537 292.369 219.757 308.405 213.64C327.603 206.321 347.753 189.166 350.277 181.788C351.791 177.363 353.036 168.058 354.038 157.55L384.426 145.165L392.663 103.125L357.058 109.199Z" fill="#4D4D4D"/>
<path d="M312.67 183.596C312.678 183.604 312.577 183.697 312.375 183.856C312.165 184.008 311.879 184.26 311.467 184.521C310.659 185.076 309.431 185.8 307.815 186.481C304.618 187.861 299.629 188.896 294.338 187.752C289.046 186.591 284.94 183.57 282.61 180.979C281.423 179.683 280.607 178.514 280.111 177.673C279.842 177.26 279.69 176.916 279.564 176.688C279.446 176.461 279.387 176.335 279.404 176.327C279.438 176.31 279.715 176.773 280.254 177.58C280.792 178.388 281.642 179.515 282.837 180.769C285.192 183.267 289.248 186.187 294.43 187.323C299.613 188.45 304.518 187.483 307.698 186.195C309.305 185.556 310.55 184.883 311.374 184.378C312.207 183.873 312.645 183.57 312.67 183.596Z" fill="#1A1A1A"/>
<path d="M301.127 98.2363C301.136 98.2363 301.161 98.3036 301.195 98.4382C301.237 98.5981 301.287 98.7916 301.346 99.0356C301.472 99.5572 301.649 100.34 301.859 101.341C302.263 103.352 302.869 106.271 303.062 109.947C303.138 111.782 303.104 113.818 302.717 115.954C302.33 118.091 301.573 120.329 300.32 122.433C299.058 124.536 297.308 126.454 295.331 128.212C293.353 129.979 291.166 131.62 288.937 133.311C284.2 136.878 279.581 140.092 275.45 143.02C271.319 145.939 267.685 148.572 264.774 150.777L264.681 150.844L264.589 150.768C261.989 148.665 260.02 146.848 258.742 145.51C258.111 144.837 257.656 144.29 257.37 143.895C257.227 143.701 257.143 143.541 257.076 143.432C257.017 143.323 256.983 143.272 256.992 143.264C257.009 143.255 257.152 143.466 257.438 143.836C257.741 144.206 258.203 144.736 258.851 145.384C260.147 146.679 262.149 148.455 264.766 150.524H264.58C267.466 148.286 271.084 145.619 275.206 142.683C279.32 139.739 283.931 136.508 288.659 132.949C290.88 131.258 293.067 129.626 295.028 127.884C296.988 126.143 298.713 124.267 299.958 122.214C301.195 120.161 301.952 117.974 302.339 115.879C302.734 113.775 302.785 111.765 302.734 109.947C302.583 106.296 302.027 103.377 301.674 101.358C301.489 100.382 301.346 99.6077 301.237 99.0356C301.195 98.7916 301.161 98.5897 301.127 98.4298C301.127 98.3121 301.119 98.2447 301.127 98.2363Z" fill="#1A1A1A"/>
<path d="M459.573 117.184C468.121 109.865 471.006 96.6813 466.312 86.4508C462.299 86.0386 458.286 85.6264 454.272 85.2057C460.38 82.0003 464.065 74.706 463.022 67.8829C456.536 74.8827 445.304 76.9524 436.748 72.7205C431.128 69.9442 426.568 64.7701 420.393 63.6848C414.789 62.7004 409.279 65.3253 403.911 67.2351C398.552 69.1449 392.049 70.1966 387.606 66.6378C384.081 63.8194 382.996 58.8724 383.223 54.3714C383.45 49.8619 384.754 45.4702 385.032 40.9692C385.579 32.1353 381.751 23.2342 375.281 17.2272C373.254 10.8163 368.399 5.28889 362.182 2.66398C354.66 -0.516206 345.465 0.686876 339.012 5.68431C336.379 7.72029 334.157 10.3536 331.171 11.8259C327.797 13.4917 323.877 13.4917 320.225 14.3919C316.574 15.2922 312.746 17.7067 312.351 21.4506L310.878 29.115C310.634 29.6619 310.373 30.2087 310.071 30.7303C306.966 36.1737 300.623 39.7493 299.243 45.8572C298.469 49.2814 299.428 52.9916 298.275 56.3064C296.752 60.6729 292.041 63.1295 289.845 67.1931C286.833 72.7794 288.878 82.5555 293.698 86.6864C298.519 90.8173 308.455 95.1837 314.664 96.5046C316.347 90.0517 317.836 83.1529 319.275 76.0942C321.807 78.5256 324.457 80.8392 327.099 83.136C334.014 89.1431 341.073 95.2426 345.869 103.042C354.98 117.866 355.132 137.519 366.607 150.601C368.853 153.167 371.588 155.456 374.852 156.44C378.116 157.433 381.986 156.903 384.401 154.497C387.253 151.653 387.623 146.857 390.77 144.359C394.96 141.036 401.084 143.686 405.594 146.571C408.858 148.658 412.114 150.862 415.816 152.006C419.518 153.151 423.817 153.075 426.955 150.82C430.101 148.565 431.481 143.753 429.21 140.615C428.301 139.361 426.946 138.486 426.046 137.224C425.146 135.962 424.885 133.968 426.114 133.035C427.476 132 429.378 133.001 430.859 133.868C438.052 138.099 447.163 138.907 454.988 135.996C462.812 133.085 469.181 126.523 471.864 118.623C467.742 119.262 463.443 118.757 459.573 117.184Z" fill="#1A1A1A"/>
<path d="M452.076 51.1567C452.076 51.1567 452.48 51.4344 453.162 52.0906C453.826 52.7468 454.811 53.7648 455.644 55.3633C456.047 56.1626 456.401 57.1133 456.569 58.1986C456.72 59.2755 456.662 60.5206 456.157 61.7153C455.669 62.9016 454.819 64.0626 453.574 64.8534C452.951 65.2404 452.228 65.5349 451.454 65.619C450.671 65.7116 449.855 65.5854 449.098 65.2741C445.977 64.0037 444.412 60.3944 441.03 58.7875C437.74 57.046 433.534 56.9282 429.487 57.8536C425.398 58.7875 421.511 60.9749 417.524 63.2128C413.553 65.4339 409.312 67.8485 404.441 68.6814C402.035 69.1273 399.553 69.1525 397.206 68.6309C396.036 68.3533 394.909 67.941 393.857 67.3858C392.814 66.8221 391.872 66.0986 391.03 65.2909C389.365 63.6503 388.195 61.6312 387.404 59.5531C386.605 57.475 386.168 55.3297 385.924 53.2264C385.478 49.003 385.831 44.9899 385.873 41.2544C385.949 37.5274 385.73 34.0191 384.855 30.9735C384.443 29.4507 383.879 28.0373 383.248 26.7585C382.626 25.4713 381.936 24.3187 381.212 23.2839C379.774 21.2142 378.251 19.641 376.905 18.4884C375.567 17.3189 374.398 16.5786 373.615 16.0654C373.228 15.8382 372.925 15.6531 372.698 15.5269C372.496 15.4007 372.387 15.3334 372.395 15.325C372.395 15.3166 372.513 15.3755 372.723 15.4849C372.951 15.6111 373.262 15.7793 373.666 15.9897C374.465 16.486 375.651 17.2012 377.022 18.3622C378.394 19.5064 379.942 21.0712 381.414 23.1493C382.155 24.1841 382.87 25.3451 383.501 26.6407C384.148 27.928 384.721 29.3498 385.158 30.8894C386.067 33.977 386.302 37.5106 386.243 41.2544C386.218 44.9983 385.882 49.0114 386.336 53.1759C386.58 55.254 387.026 57.3657 387.808 59.4017C388.591 61.4292 389.726 63.3979 391.342 64.9796C392.158 65.7536 393.058 66.4603 394.068 66.9988C395.077 67.5288 396.171 67.9326 397.307 68.2018C399.587 68.7066 402.001 68.6814 404.365 68.2439C409.144 67.4278 413.334 65.0553 417.313 62.8342C421.301 60.6047 425.222 58.4005 429.395 57.4582C431.464 57.0039 433.551 56.7767 435.561 56.9366C436.571 56.9871 437.547 57.189 438.498 57.4162C439.431 57.7022 440.357 58.0051 441.19 58.4678C444.681 60.1757 446.246 63.8018 449.208 64.988C450.646 65.6106 452.245 65.375 453.423 64.6178C454.617 63.8775 455.45 62.7669 455.93 61.6227C456.426 60.4786 456.493 59.2839 456.359 58.2238C456.207 57.1638 455.879 56.2299 455.484 55.4391C454.685 53.8574 453.734 52.8226 453.094 52.1495C452.766 51.813 452.506 51.569 452.329 51.4091C452.161 51.2493 452.076 51.1567 452.076 51.1567Z" fill="#1A1A1A"/>
<path d="M314.546 99.7178C314.546 99.7178 314.513 99.5916 314.479 99.3392C314.437 99.0868 314.403 98.7082 314.252 98.237C313.999 97.2863 313.419 95.9066 312.182 94.4847C310.929 93.0882 309.061 91.6663 306.604 90.6063C304.164 89.4957 301.144 88.9489 297.821 88.3179C294.531 87.6701 290.754 86.9886 287.372 84.7339C284.048 82.4876 281.39 78.668 280.708 74.1669C280.019 69.6911 281.466 64.66 284.898 61.0844C288.381 57.5088 293.303 55.742 297.324 52.5955C298.317 51.7879 299.217 50.8961 299.975 49.9033C300.681 48.8769 301.262 47.7664 301.59 46.5717C302.255 44.1823 302.204 41.6836 302.431 39.2522C302.541 38.0323 302.726 36.8208 303.104 35.6598C303.475 34.4988 304.089 33.4219 304.88 32.5133C306.512 30.7213 308.758 29.779 310.895 29.1648C313.057 28.5338 315.203 28.1468 317.238 27.5831C319.266 27.0195 321.176 26.2623 322.774 25.1097C324.398 23.9991 325.744 22.6194 326.93 21.2228C328.117 19.8178 329.126 18.3707 330.06 16.9657C331.919 14.1473 333.51 11.5224 335.201 9.41908C336.866 7.29896 338.557 5.67521 340.106 4.57309C341.654 3.46255 343.025 2.87362 343.976 2.57916C344.926 2.27629 345.448 2.20898 345.448 2.20898C345.456 2.24264 344.935 2.33518 344.001 2.6633C343.067 2.983 341.712 3.58874 340.198 4.70769C338.675 5.81823 337.018 7.44198 335.386 9.5621C333.72 11.6654 332.155 14.2903 330.313 17.1256C329.379 18.539 328.369 20.0029 327.183 21.4331C325.997 22.8549 324.634 24.2515 322.976 25.4041C321.344 26.5904 319.375 27.3812 317.331 27.9533C315.278 28.5254 313.133 28.9208 310.996 29.5518C308.876 30.166 306.722 31.0914 305.174 32.7909C304.434 33.6575 303.845 34.667 303.491 35.786C303.13 36.8965 302.953 38.0828 302.844 39.2859C302.616 41.6836 302.684 44.2076 301.994 46.6895C301.657 47.9262 301.052 49.0872 300.311 50.1557C299.529 51.1989 298.595 52.1076 297.585 52.9321C295.533 54.539 293.269 55.7673 291.116 57.0461C288.962 58.3165 286.875 59.6626 285.193 61.3789C281.853 64.8451 280.431 69.75 281.087 74.0996C281.735 78.4829 284.326 82.2267 287.557 84.431C290.846 86.6437 294.582 87.3504 297.863 88.015C301.169 88.6544 304.223 89.2265 306.688 90.3791C309.162 91.4728 311.046 92.9367 312.3 94.367C313.537 95.8224 314.1 97.2443 314.328 98.2118C314.462 98.6913 314.487 99.0783 314.513 99.3307C314.546 99.5915 314.546 99.7178 314.546 99.7178Z" fill="#1A1A1A"/>
<path d="M381.717 24.1931C381.709 24.2183 381.482 24.1594 381.069 24.0248C380.657 23.8986 380.085 23.6631 379.387 23.3434C377.99 22.704 376.148 21.6187 374.364 20.0875C372.589 18.5563 371.234 16.8905 370.393 15.6117C369.972 14.9723 369.661 14.4338 369.468 14.0468C369.274 13.6598 369.181 13.4495 369.207 13.4326C369.274 13.399 369.745 14.2151 370.645 15.435C371.537 16.6549 372.9 18.2534 374.642 19.7594C376.392 21.2569 378.175 22.3674 379.513 23.0657C380.867 23.7809 381.751 24.1258 381.717 24.1931Z" fill="#333333"/>
<path d="M409.691 81.5807C409.674 81.6228 409.161 81.4545 408.21 81.2442C407.259 81.0339 405.863 80.8236 404.13 80.7394C402.388 80.6637 400.319 80.7394 398.013 80.9161C395.708 81.0759 393.167 81.3115 390.484 81.2526C387.8 81.1853 385.225 80.7815 383.055 79.856C380.893 78.939 379.201 77.5845 378.074 76.2215C376.947 74.8502 376.383 73.4872 376.156 72.5281C376.047 72.0486 375.988 71.67 375.979 71.4092C375.962 71.1484 375.954 71.0138 375.971 71.0138C376.021 71.0054 376.047 71.5522 376.316 72.4861C376.585 73.4115 377.174 74.7156 378.301 76.0196C379.42 77.3237 381.094 78.6109 383.198 79.4859C385.309 80.3608 387.833 80.7478 390.475 80.8151C393.125 80.874 395.658 80.6553 397.963 80.5123C400.268 80.3608 402.363 80.3188 404.121 80.4281C405.88 80.5459 407.285 80.8067 408.227 81.0759C408.698 81.2106 409.06 81.3199 409.304 81.4209C409.565 81.505 409.691 81.5639 409.691 81.5807Z" fill="#333333"/>
<path d="M459.27 119.833C459.27 119.842 459.194 119.876 459.026 119.943C458.858 120.01 458.614 120.12 458.277 120.187C457.604 120.347 456.544 120.431 455.265 120.052C454.003 119.665 452.539 118.858 451.227 117.503C449.881 116.165 448.888 114.222 447.979 112.06C447.062 109.906 446.288 107.424 444.791 105.144C444.084 103.975 443.133 102.923 442.124 101.888C441.047 100.912 439.886 99.9615 438.557 99.1875C433.273 96.0073 426.332 94.6949 419.248 95.1156C412.122 95.4857 405.426 96.8823 399.225 97.3198C393.033 97.8751 387.346 97.1936 382.895 95.6288C378.419 94.0976 375.29 91.7082 373.54 89.7648C373.077 89.302 372.732 88.8225 372.421 88.4271C372.101 88.0317 371.865 87.6783 371.689 87.3754C371.52 87.0978 371.386 86.879 371.276 86.7024C371.184 86.5509 371.142 86.4668 371.15 86.4668C371.159 86.4668 371.209 86.5341 371.318 86.6771C371.428 86.8454 371.579 87.0557 371.764 87.3249C371.949 87.611 372.193 87.9643 372.522 88.3429C372.841 88.7299 373.195 89.1927 373.666 89.647C375.441 91.5399 378.562 93.8536 382.996 95.3343C387.413 96.8403 393.033 97.4881 399.191 96.9076C405.358 96.4532 412.055 95.0482 419.232 94.6697C426.374 94.249 433.408 95.5783 438.775 98.8342C440.121 99.625 441.308 100.601 442.401 101.602C443.436 102.662 444.404 103.747 445.11 104.942C446.633 107.289 447.382 109.788 448.282 111.942C449.157 114.096 450.116 116.014 451.412 117.335C452.682 118.672 454.096 119.497 455.324 119.892C456.561 120.288 457.604 120.237 458.269 120.103C458.933 119.977 459.261 119.8 459.27 119.833Z" fill="#333333"/>
<path d="M326.947 24.1844C323.683 24.1002 320.898 26.5316 320.536 29.7707L313.73 100.618C312.552 110.579 325.584 131.94 336.26 133.118C347.046 134.304 348.098 129.08 349.494 119.64C351.833 103.866 352.616 97.9343 352.607 98.0268C352.607 98.0268 366.489 97.5641 371.638 80.2077C374.196 71.5758 375.659 57.0631 376.476 45.15C377.207 34.4232 371.882 20.4489 361.138 20.1797L326.947 24.1844Z" fill="#FFBE9D"/>
<path d="M371.781 54.5568C371.663 55.7599 370.553 56.6601 369.282 56.5591C368.02 56.4582 367.095 55.4065 367.212 54.2034C367.33 53.0003 368.441 52.1001 369.703 52.2011C370.973 52.2936 371.899 53.3537 371.781 54.5568Z" fill="#1A1A1A"/>
<path d="M372.748 49.9717C372.488 50.2914 370.662 49.1304 368.205 49.3071C365.74 49.4501 364.024 50.8383 363.738 50.5606C363.595 50.4344 363.847 49.8792 364.596 49.2482C365.328 48.6256 366.615 47.9778 368.146 47.8768C369.678 47.7759 371.007 48.2554 371.789 48.777C372.58 49.3071 372.875 49.8287 372.748 49.9717Z" fill="#1A1A1A"/>
<path d="M350.134 55.8352C349.839 56.1297 348.14 54.792 345.675 54.7246C343.21 54.6237 341.367 55.8436 341.106 55.5323C340.98 55.3977 341.283 54.8593 342.091 54.3124C342.882 53.7655 344.219 53.2439 345.759 53.2944C347.299 53.3449 348.569 53.9506 349.301 54.548C350.033 55.1621 350.277 55.709 350.134 55.8352Z" fill="#1A1A1A"/>
<path d="M354.728 68.8667C354.736 68.7236 356.292 68.6647 358.8 68.6731C359.431 68.69 360.045 68.6479 360.205 68.2357C360.415 67.8066 360.238 67.0999 360.028 66.3259C359.641 64.7358 359.237 63.07 358.808 61.3284C357.134 54.2193 356.015 48.4058 356.301 48.3385C356.587 48.2712 358.177 53.9837 359.851 61.0929C360.247 62.8428 360.634 64.517 360.987 66.1071C361.13 66.8475 361.433 67.7056 360.987 68.5974C360.76 69.0433 360.255 69.321 359.843 69.3714C359.431 69.4387 359.077 69.4051 358.766 69.3799C356.259 69.1948 354.719 69.0013 354.728 68.8667Z" fill="#1A1A1A"/>
<path d="M352.607 98.0365C352.607 98.0365 340.576 97.2372 329.698 88.5801C329.698 88.5801 334.082 101.562 352.044 102.235L352.607 98.0365Z" fill="#EB996E"/>
<path d="M350.479 51.619C350.092 52.2163 347.761 51.3498 344.867 51.0217C341.973 50.6431 339.508 50.9375 339.273 50.2645C339.172 49.9448 339.71 49.4232 340.778 49.0025C341.839 48.5819 343.429 48.321 345.17 48.5314C346.903 48.7417 348.392 49.3727 349.318 50.0289C350.252 50.6936 350.656 51.333 350.479 51.619Z" fill="#1A1A1A"/>
<path d="M372.378 46.6647C371.974 47.2452 370.25 46.7488 368.205 46.833C366.161 46.8414 364.453 47.4051 364.024 46.833C363.839 46.5553 364.083 45.9832 364.806 45.4111C365.522 44.8475 366.75 44.3511 368.155 44.3174C369.56 44.2922 370.805 44.7381 371.537 45.2765C372.294 45.8234 372.555 46.3871 372.378 46.6647Z" fill="#1A1A1A"/>
<path d="M348.771 73.3348C349.89 72.5777 351.303 72.2832 352.624 72.5272C353.297 72.6534 353.979 72.931 354.416 73.461C354.997 74.1509 355.064 75.1268 355.039 76.0355C355.022 76.5739 354.988 77.1292 354.803 77.634C354.618 78.1388 354.265 78.6099 353.777 78.837C353.272 79.0726 352.683 79.0137 352.128 78.9212C351.211 78.7697 350.294 78.5089 349.528 77.9789C348.763 77.4573 348.165 76.6328 348.073 75.7074C347.989 74.7819 348.502 73.7892 349.377 73.4695" fill="#EB996E"/>
<path d="M355.409 78.7351C355.224 78.8024 354.904 78.2639 354.315 77.5236C353.726 76.7832 352.826 75.8493 351.615 75.1595C350.403 74.4696 349.141 74.1667 348.207 74.0405C347.273 73.9059 346.642 73.9059 346.609 73.7124C346.567 73.5441 347.156 73.216 348.224 73.1066C349.276 72.9973 350.815 73.1824 352.271 74.0153C353.718 74.8398 354.669 76.0681 355.114 77.0356C355.56 78.0115 355.577 78.6846 355.409 78.7351Z" fill="#1A1A1A"/>
<path d="M312.78 95.7562C318.618 94.5951 323.128 89.5725 325.138 83.9609C327.149 78.3577 327.048 72.2245 326.51 66.2932C326.442 65.5276 326.316 64.6779 325.711 64.2067C324.827 63.5253 323.557 64.0805 322.606 64.6611C318.921 66.9074 315.388 69.3893 312.022 72.0983C308.893 74.6223 305.797 77.5248 304.594 81.3528C302.751 87.2336 306.646 94.2586 312.611 95.8151" fill="#1A1A1A"/>
<path d="M447.189 94.3847L419.61 50.064L411.996 34.466C411.996 34.466 409.565 31.2438 407.041 28.4927C402.893 23.9748 398.805 27.4831 398.805 27.4831C398.805 27.4831 398.207 25.7584 396.037 25.7752C393.445 25.8004 392.225 27.7186 392.225 27.7186C392.225 27.7186 391.098 26.4651 387.968 26.2716C387.295 26.2295 386.622 26.4903 385.983 26.911C384.956 26.0108 383.08 24.7067 381.263 25.3714C379.85 25.8846 371.277 32.4048 369.165 35.6859C368.122 37.3097 370.057 39.413 372.665 38.4286C373.809 37.9911 374.962 37.6462 375.794 37.1582C377.191 36.3422 377.915 35.4504 377.915 35.4504C377.915 35.4504 375.752 39.2363 377.906 39.9009C378.806 40.1786 380.716 39.9766 381.961 38.9166C382.786 38.2183 383.736 37.3181 384.637 36.4431C384.603 36.4936 384.561 36.5441 384.527 36.5946C383.333 38.3613 386.446 40.9778 387.96 39.9178C388.717 39.3877 389.382 38.8493 389.971 38.3277C393.471 40.8684 388.608 44.1243 386.555 43.9561C383.375 43.6953 379.656 43.7121 377.065 43.9224C375.281 44.0739 373.683 44.4945 372.724 45.4873C371.563 46.6819 372.783 49.1891 374.423 49.4415C377.443 49.9042 381.297 50.5772 385.301 51.6121C390.021 52.8236 402.355 56.8367 402.355 56.8367L403.558 57.8126L420.334 98.7091L391.62 104.792L385.209 141.17L437.034 127.112C448.72 121.029 454.256 105.49 447.189 94.3847Z" fill="#FFBE9D"/>
<path d="M402.363 56.8287C402.355 56.8455 402.136 56.7867 401.707 56.6689C401.244 56.5343 400.622 56.3576 399.848 56.1388C398.19 55.6509 395.876 54.961 393.033 54.1113C391.594 53.6738 390.021 53.2026 388.33 52.6894C386.639 52.1678 384.838 51.6294 382.912 51.1414C380.994 50.6534 378.966 50.1655 376.837 49.8878C375.803 49.728 374.633 49.8289 373.54 49.2905C373.27 49.1559 373.009 48.9876 372.799 48.7352C372.698 48.609 372.606 48.4744 372.547 48.2809L372.479 47.835C372.412 47.2545 372.404 46.6488 372.589 46.0514C372.782 45.4457 373.253 44.9493 373.783 44.6717C374.305 44.3772 374.86 44.2089 375.39 44.0323C376.493 43.6789 377.628 43.62 378.714 43.62C380.901 43.6452 382.962 43.9481 384.931 43.8724C385.915 43.8388 386.874 43.7546 387.783 43.5948C388.7 43.4265 389.575 43.1909 390.433 42.9722C392.133 42.5179 393.807 42.1898 395.338 42.3496C396.861 42.4758 398.182 42.9049 399.292 43.3592C400.403 43.8135 401.311 44.3015 402.052 44.7137C402.784 45.126 403.339 45.4709 403.718 45.6981C404.088 45.9336 404.281 46.0682 404.273 46.0767C404.264 46.0851 404.054 45.9841 403.667 45.7738C403.238 45.5466 402.674 45.2438 401.968 44.8567C401.219 44.4697 400.31 44.007 399.2 43.5779C398.098 43.1489 396.794 42.7535 395.313 42.6525C393.832 42.5179 392.225 42.8544 390.526 43.3171C389.676 43.5443 388.793 43.7967 387.85 43.9734C386.908 44.15 385.941 44.2426 384.939 44.2762C382.929 44.3688 380.842 44.0743 378.705 44.0491C377.637 44.0491 376.543 44.1164 375.517 44.4445C374.49 44.781 373.312 45.1428 373.001 46.186C372.841 46.6824 372.85 47.2377 372.909 47.7845L372.959 48.1715C372.984 48.2557 373.052 48.365 373.119 48.4492C373.279 48.6343 373.489 48.7773 373.716 48.8867C374.658 49.3578 375.786 49.2821 376.871 49.4419C379.033 49.728 381.069 50.2328 382.987 50.7291C384.914 51.2339 386.723 51.7808 388.406 52.3192C390.088 52.8493 391.653 53.3372 393.092 53.7915C395.919 54.6918 398.224 55.4321 399.873 55.9537C400.638 56.2061 401.253 56.4081 401.707 56.5595C402.153 56.7278 402.363 56.8119 402.363 56.8287Z" fill="#EB996E"/>
<path d="M381.103 25.4379C381.145 25.5052 379.807 26.2876 377.822 27.7852C376.829 28.534 375.693 29.4847 374.524 30.6457C373.346 31.7899 372.109 33.136 370.645 34.3895C369.93 34.9953 369.257 35.6515 369.089 36.4676C369.005 36.863 369.038 37.2753 369.232 37.595C369.417 37.9231 369.745 38.1418 370.099 38.268C370.83 38.512 371.613 38.4447 372.32 38.3101C373.026 38.1755 373.674 37.982 374.246 37.7548C376.543 36.8209 377.603 35.601 377.662 35.6852C377.679 35.702 377.435 36.0049 376.905 36.4676C376.375 36.9303 375.533 37.5361 374.364 38.0409C373.784 38.2933 373.119 38.512 372.387 38.6634C371.663 38.8149 370.822 38.9158 369.964 38.6466C369.543 38.512 369.114 38.2344 368.862 37.8053C368.601 37.3846 368.559 36.8546 368.651 36.375C368.845 35.3823 369.627 34.6588 370.343 34.053C371.781 32.8163 373.018 31.4954 374.221 30.3512C375.424 29.1986 376.594 28.2647 377.62 27.5328C378.638 26.8009 379.513 26.2792 380.119 25.9259C380.75 25.5894 381.095 25.4127 381.103 25.4379Z" fill="#EB996E"/>
<path d="M391.628 28.9223C391.653 28.9391 391.3 29.3514 390.652 30.0833C389.954 30.8573 389.02 31.8838 387.884 33.1289C386.689 34.4245 385.284 35.9305 383.736 37.6047C382.937 38.4629 381.986 39.2621 380.825 39.8258C380.245 40.1034 379.597 40.3138 378.899 40.3053C378.209 40.2885 377.485 40.0866 376.964 39.5313C376.686 39.2453 376.552 38.8583 376.501 38.4797C376.467 38.1011 376.526 37.7393 376.61 37.3944C376.804 36.7129 377.124 36.1156 377.502 35.5519L377.511 35.5435L377.527 35.5267C379.008 33.9534 380.388 32.4727 381.633 31.1097C382.895 29.772 384.107 28.6783 385.091 27.7445C385.579 27.2817 386.033 26.8443 386.53 26.5834C387.043 26.3226 387.522 26.3311 387.893 26.289C388.633 26.2385 389.07 26.3058 389.037 26.3815C389.054 26.3479 388.641 26.3395 387.909 26.432C387.556 26.4993 387.068 26.5161 386.639 26.7685C386.193 27.0209 385.772 27.4584 385.284 27.938C384.325 28.8971 383.139 30.0076 381.902 31.3537C380.691 32.7167 379.311 34.2226 377.83 35.8211L377.847 35.7959C377.502 36.3007 377.199 36.8896 377.031 37.4953C376.947 37.7982 376.913 38.1179 376.93 38.4208C376.972 38.7153 377.073 39.0013 377.275 39.22C377.662 39.6407 378.31 39.8426 378.89 39.851C379.496 39.8595 380.085 39.6744 380.632 39.4135C381.717 38.8919 382.66 38.1179 383.434 37.3018C385.007 35.6529 386.437 34.1637 387.649 32.8849C388.826 31.6818 389.794 30.6807 390.517 29.9319C390.829 29.6206 391.098 29.3598 391.317 29.1411C391.51 28.998 391.611 28.9139 391.628 28.9223Z" fill="#EB996E"/>
<path d="M404.517 32.9763C404.559 33.01 404.475 33.2287 404.18 33.4643C403.894 33.6914 403.373 33.9102 402.784 33.8092C402.195 33.7082 401.774 33.3297 401.589 33.01C401.396 32.6902 401.387 32.4547 401.446 32.4379C401.505 32.4126 401.614 32.5977 401.833 32.8165C402.052 33.0352 402.414 33.296 402.86 33.3717C403.306 33.4474 403.735 33.3297 404.012 33.195C404.298 33.0773 404.467 32.9342 404.517 32.9763Z" fill="#EB996E"/>
<path d="M405.526 36.8385C405.434 36.9142 404.803 36.2832 404.248 35.341C403.692 34.3987 403.44 33.5405 403.549 33.4985C403.667 33.448 404.088 34.2052 404.626 35.1222C405.156 36.0308 405.619 36.7628 405.526 36.8385Z" fill="#EB996E"/>
<path d="M407.386 51.8809C407.344 51.9062 406.965 51.2584 406.586 50.131C406.208 49.0036 405.871 47.363 405.897 45.529C405.922 43.6949 406.3 42.0711 406.713 40.9522C407.117 39.8332 407.512 39.2023 407.554 39.2191C407.697 39.2611 406.359 41.9449 406.334 45.5374C406.258 49.1214 407.52 51.8389 407.386 51.8809Z" fill="#EB996E"/>
<path d="M430.034 110.176C429.95 110.185 429.866 109.284 429.428 107.913C429.218 107.223 428.882 106.441 428.436 105.599C427.973 104.775 427.392 103.908 426.677 103.084C425.954 102.268 425.163 101.578 424.406 101.014C423.632 100.467 422.9 100.03 422.244 99.727C420.939 99.1128 420.056 98.9193 420.081 98.8352C420.09 98.8015 420.308 98.8352 420.712 98.9193C421.116 98.995 421.688 99.1717 422.37 99.4409C423.06 99.7101 423.834 100.131 424.641 100.678C425.441 101.241 426.257 101.948 427.005 102.789C427.746 103.639 428.335 104.548 428.789 105.406C429.226 106.281 429.546 107.105 429.723 107.82C429.908 108.536 430.009 109.124 430.026 109.528C430.059 109.949 430.059 110.176 430.034 110.176Z" fill="#EB996E"/>
<path d="M333.804 191.203C330.127 190.438 326.804 192.095 326.804 192.095C323.06 190.438 318.441 193.298 318.441 193.298C317.087 192.65 308.926 197.984 308.926 197.984L298.763 202.78L244.473 162.438L259.86 146.428L238.298 123.99L213.024 149.995C209.878 153.243 208.288 157.626 207.985 162.237C207.345 172.122 212.982 181.351 221.816 185.827L285.79 218.639C285.79 218.639 292.571 218.403 300.336 216.375C305.855 214.937 315.287 210.747 315.287 210.747C315.287 210.747 315.261 211.033 316.944 214.297C319.981 220.178 324.432 213.835 324.432 213.835C324.432 213.835 325.34 215.921 326.156 216.712C330.001 220.439 332.668 215.433 332.668 215.433C332.668 215.433 333.821 217.444 337.262 215.946C340.686 214.457 336.765 204.117 336.765 204.117C336.765 204.117 337.918 206.364 340.147 203.52C342.369 200.676 337.48 191.969 333.804 191.203Z" fill="#FFBE9D"/>
<path d="M326.123 192.617C326.114 192.601 326.35 192.466 326.829 192.348C327.301 192.222 328.041 192.188 328.891 192.407C329.74 192.626 330.691 193.097 331.608 193.795C332.071 194.149 332.525 194.527 332.963 195.007C333.392 195.486 333.72 196.058 334.023 196.647C335.192 199.003 336.008 201.241 336.505 202.881C336.757 203.706 336.925 204.379 337.035 204.842C337.136 205.313 337.178 205.574 337.152 205.582C337.085 205.599 336.782 204.581 336.219 202.974C335.647 201.367 334.788 199.171 333.636 196.841C333.35 196.269 333.03 195.73 332.643 195.284C332.248 194.847 331.802 194.451 331.364 194.115C330.489 193.425 329.597 192.954 328.807 192.701C327.183 192.197 326.131 192.727 326.123 192.617Z" fill="#EB996E"/>
<path d="M332.66 215.433C332.634 215.442 332.466 215.114 332.188 214.499C331.869 213.81 331.473 212.943 331.002 211.925C330.001 209.746 328.537 206.776 327.141 203.377C326.459 201.678 325.837 200.054 324.928 198.784C324.045 197.496 322.875 196.663 321.807 196.175C320.738 195.679 319.754 195.612 319.114 195.696C318.467 195.78 318.13 195.957 318.105 195.915C318.096 195.898 318.181 195.856 318.34 195.772C318.5 195.687 318.753 195.595 319.089 195.528C319.754 195.385 320.797 195.418 321.933 195.889C323.06 196.352 324.322 197.21 325.264 198.54C326.224 199.852 326.871 201.518 327.553 203.209C328.941 206.583 330.363 209.578 331.297 211.799C331.768 212.901 332.13 213.809 332.357 214.44C332.575 215.063 332.685 215.425 332.66 215.433Z" fill="#EB996E"/>
<path d="M307.74 202.453C307.732 202.427 308.034 202.251 308.606 201.973C309.263 201.653 310.07 201.266 311.029 200.804C311.551 200.56 312.098 200.29 312.729 200.021C313.377 199.76 314.126 199.634 314.908 199.701C315.69 199.777 316.498 200.055 317.188 200.576C317.878 201.106 318.391 201.822 318.862 202.57C319.325 203.319 319.687 204.102 320.04 204.834C320.402 205.565 320.772 206.255 321.134 206.912C321.866 208.216 322.556 209.393 323.069 210.411C323.582 211.429 323.935 212.288 324.146 212.893C324.356 213.499 324.44 213.836 324.415 213.852C324.339 213.878 323.885 212.54 322.791 210.563C322.253 209.57 321.538 208.418 320.78 207.114C320.402 206.457 320.023 205.767 319.653 205.027C319.283 204.287 318.929 203.529 318.484 202.806C318.038 202.082 317.533 201.401 316.927 200.93C316.313 200.459 315.573 200.198 314.866 200.114C314.151 200.038 313.452 200.139 312.855 200.366C312.249 200.61 311.677 200.871 311.156 201.09C310.171 201.502 309.347 201.847 308.674 202.133C308.085 202.36 307.748 202.486 307.74 202.453Z" fill="#EB996E"/>
<path d="M308.918 197.984C308.934 198.009 308.665 198.178 308.177 198.455C307.689 198.733 306.974 199.12 306.082 199.591C304.307 200.533 301.834 201.804 299.091 203.184C296.348 204.563 293.858 205.792 292.041 206.667C291.132 207.104 290.392 207.449 289.879 207.676C289.365 207.903 289.071 208.021 289.063 207.987C289.046 207.962 289.315 207.794 289.803 207.516C290.291 207.239 291.006 206.852 291.898 206.381C293.673 205.438 296.146 204.168 298.889 202.788C301.632 201.408 304.122 200.18 305.939 199.305C306.848 198.868 307.58 198.523 308.102 198.295C308.615 198.068 308.909 197.951 308.918 197.984Z" fill="#EB996E"/>
<path d="M245.188 162.532C245.163 162.675 242.319 161.884 238.777 162.322C235.235 162.717 232.644 164.156 232.593 164.021C232.568 163.979 233.174 163.558 234.259 163.079C235.344 162.599 236.918 162.094 238.726 161.884C240.527 161.674 242.184 161.792 243.345 162.002C244.515 162.221 245.196 162.481 245.188 162.532Z" fill="#EB996E"/>
<path d="M365.084 16.7972C351.648 16.6122 338.196 18.034 325.096 21.0207C322.059 21.7105 318.845 22.6023 316.793 24.9496C314.622 27.4231 314.235 30.9566 313.949 34.2378C313.604 38.234 313.259 42.2303 312.906 46.2266C312.325 47.2277 311.677 48.1868 310.988 49.087C307.824 53.2179 303.794 56.6589 300.917 61.0001C298.04 65.3329 296.45 71.0959 298.797 75.74C300.21 78.55 302.844 80.5355 304.762 83.0258C308.018 87.2576 309.078 92.7094 310.979 97.6984C312.881 102.687 316.313 107.769 321.555 108.77C324.053 109.25 326.653 108.72 329.168 109.09C332.929 109.637 336.092 112.102 339.088 114.449C342.083 116.796 345.322 119.194 349.099 119.564C352.885 119.943 357.218 117.377 357.294 113.574C354.517 115.189 350.832 115.08 348.149 113.313C345.944 111.866 344.522 109.511 342.63 107.668C337.985 103.159 330.489 101.728 327.259 96.1167C324.701 91.6746 325.719 86.1219 326.88 81.1328C327.89 76.8085 328.908 72.1139 327.663 67.9578C327.755 67.2932 327.814 66.6117 327.814 65.9386C327.848 61.5133 326.089 56.7683 328.15 52.8562C330.876 47.6736 338.734 47.0258 341.485 41.8601C343.084 38.8566 342.52 35.0202 344.27 32.1092C345.919 29.3665 349.2 28.1046 352.33 27.4231C355.451 26.7416 358.749 26.4303 361.517 24.815C364.285 23.1997 366.338 19.7334 365.084 16.7972Z" fill="#1A1A1A"/>
<path d="M375.281 107.062C375.289 107.07 375.247 107.138 375.155 107.272C375.045 107.424 374.911 107.617 374.742 107.861C374.364 108.366 373.733 109.056 372.807 109.822C371.865 110.562 370.586 111.328 368.971 111.883C367.364 112.438 365.395 112.775 363.242 112.547C361.096 112.371 358.774 111.496 356.797 109.906C354.795 108.366 353.011 106.322 350.748 104.698C349.612 103.899 348.317 103.259 346.895 103.083C345.465 102.881 344.009 103.293 342.604 103.857C341.191 104.412 339.769 105.127 338.145 105.396C336.521 105.682 334.822 105.287 333.358 104.547C331.869 103.815 330.565 102.83 329.311 101.863C328.058 100.887 326.829 99.9025 325.761 98.7751C324.684 97.6645 323.759 96.3942 323.237 94.9639C322.682 93.5421 322.656 91.9941 322.951 90.5891C323.229 89.1756 323.742 87.8884 324.221 86.6433C324.709 85.3981 325.13 84.1866 325.5 82.992C326.224 80.6026 326.728 78.3227 327.057 76.2278C327.713 72.0296 327.713 68.5634 327.603 66.1908C327.553 65.0046 327.477 64.0791 327.41 63.4566C327.385 63.1621 327.359 62.9265 327.351 62.7498C327.343 62.59 327.334 62.5059 327.343 62.5059C327.351 62.5059 327.368 62.5816 327.393 62.7414C327.418 62.9265 327.452 63.1537 327.502 63.4481C327.595 64.0707 327.696 64.9878 327.78 66.1824C327.94 68.5634 327.99 72.038 327.376 76.2782C327.065 78.39 326.577 80.6868 325.862 83.1013C325.492 84.3044 325.079 85.5412 324.591 86.7863C324.12 88.0315 323.624 89.3103 323.355 90.6732C323.085 92.0277 323.111 93.4748 323.641 94.8209C324.137 96.1754 325.029 97.3869 326.081 98.4722C327.132 99.5659 328.344 100.542 329.589 101.509C330.834 102.477 332.121 103.436 333.56 104.143C334.982 104.858 336.572 105.22 338.095 104.959C339.617 104.715 341.031 104.017 342.461 103.453C343.883 102.881 345.431 102.443 346.954 102.662C348.468 102.855 349.831 103.545 350.992 104.361C353.306 106.044 355.072 108.088 357.033 109.62C358.959 111.193 361.189 112.043 363.284 112.236C365.379 112.48 367.314 112.169 368.904 111.647C370.502 111.126 371.773 110.394 372.715 109.687C374.574 108.215 375.222 107.003 375.281 107.062Z" fill="#1A1A1A"/>
<path d="M291.225 80.3089C291.225 80.3089 290.964 80.0145 290.552 79.3835C290.156 78.7441 289.66 77.7261 289.365 76.3211C289.063 74.9161 289.021 73.124 289.45 71.1217C289.895 69.1362 290.779 66.9235 292.361 64.8791C293.909 62.8263 296.012 60.9165 298.435 59.1329C300.849 57.3325 303.592 55.6667 306.326 53.7148C309.035 51.7546 311.812 49.483 313.814 46.4374C314.824 44.9315 315.539 43.2152 316.086 41.4148C316.633 39.6143 317.003 37.7298 317.432 35.8284C317.861 33.927 318.357 32.0425 319.131 30.2925C319.888 28.5342 321.016 26.9357 322.438 25.7242C323.859 24.5127 325.517 23.6545 327.208 23.0993C328.899 22.5272 330.632 22.2327 332.323 22.0897C335.714 21.7952 338.927 22.1738 341.914 22.3926C344.901 22.6365 347.686 22.7712 350.21 22.5019C352.734 22.2579 354.938 21.5008 356.713 20.5669C358.48 19.6078 359.817 18.4636 360.701 17.3531C361.584 16.2509 362.064 15.2414 362.308 14.5346C362.543 13.8279 362.636 13.4409 362.661 13.4494C362.661 13.4494 362.611 13.8448 362.392 14.5683C362.165 15.2834 361.71 16.3267 360.827 17.4624C359.96 18.6066 358.606 19.7929 356.822 20.7856C355.03 21.7532 352.801 22.544 350.235 22.8132C347.686 23.1077 344.867 22.9899 341.881 22.7627C338.894 22.5524 335.697 22.1991 332.357 22.5019C330.691 22.6534 328.992 22.9478 327.343 23.5115C325.685 24.0584 324.087 24.8913 322.715 26.0691C321.344 27.2386 320.267 28.7782 319.527 30.4945C318.77 32.2023 318.282 34.0616 317.852 35.9546C317.415 37.8476 317.045 39.7405 316.498 41.5662C315.951 43.3919 315.202 45.1586 314.168 46.6982C312.115 49.8111 309.288 52.0995 306.554 54.0682C303.794 56.02 301.051 57.6774 298.645 59.4526C296.231 61.2026 294.144 63.0787 292.605 65.0895C291.04 67.0834 290.148 69.2456 289.685 71.1974C289.248 73.1577 289.256 74.9245 289.534 76.3126C290.089 79.089 291.326 80.2668 291.225 80.3089Z" fill="#4D4D4D"/>
<path d="M293.69 84.726C293.69 84.726 292.647 83.9688 291.107 82.2441C290.35 81.3776 289.458 80.2418 288.861 78.6769C288.575 77.9029 288.381 77.0027 288.474 76.0436C288.558 75.0929 288.953 74.117 289.61 73.2841C290.973 71.6183 293.227 70.7181 295.591 70.2217C296.786 69.9693 298.023 69.7758 299.259 69.4729C300.496 69.17 301.758 68.741 302.844 67.9838C303.92 67.2098 304.804 66.1329 305.452 64.8961C306.116 63.6594 306.579 62.2796 307.067 60.8831C307.555 59.4865 308.043 58.0394 308.783 56.6681C309.498 55.2883 310.567 54.0263 311.938 53.1766C313.31 52.3268 314.832 51.8557 316.321 51.4687C317.811 51.0817 319.283 50.7704 320.671 50.2993C323.481 49.4159 325.685 47.4893 327.351 45.3776C329.042 43.2658 330.279 40.9859 331.499 38.891C332.71 36.7961 333.913 34.8611 335.276 33.2878C336.614 31.6977 338.128 30.5199 339.592 29.7627C341.065 28.9971 342.47 28.6522 343.622 28.5428C344.783 28.4502 345.692 28.5933 346.272 28.7615C346.861 28.9214 347.147 29.0644 347.147 29.0644C347.139 29.0896 346.836 28.9719 346.256 28.8457C345.675 28.7111 344.775 28.6017 343.639 28.7111C342.503 28.8373 341.14 29.2074 339.71 29.973C338.28 30.7386 336.816 31.9081 335.512 33.4813C334.191 35.0378 333.005 36.9644 331.81 39.0677C330.607 41.1626 329.379 43.4678 327.662 45.6215C326.813 46.6984 325.837 47.7332 324.693 48.625C323.557 49.5253 322.227 50.232 320.797 50.7031C319.375 51.1911 317.895 51.5024 316.422 51.8894C314.95 52.2764 313.469 52.7391 312.165 53.5468C310.861 54.3544 309.852 55.5407 309.153 56.8784C308.438 58.2077 307.95 59.6295 307.462 61.0261C306.974 62.4227 306.503 63.8193 305.813 65.0981C305.14 66.3769 304.215 67.5126 303.062 68.3287C301.91 69.128 300.597 69.557 299.335 69.8599C298.073 70.1628 296.828 70.3479 295.65 70.5919C293.32 71.063 291.132 71.9296 289.837 73.4944C289.206 74.2684 288.827 75.1855 288.735 76.0857C288.634 76.9859 288.802 77.8524 289.071 78.6012C289.626 80.1156 290.493 81.2598 291.216 82.1347C291.957 83.0097 292.588 83.6407 293.017 84.0698C293.219 84.2633 293.379 84.4231 293.513 84.5493C293.639 84.6587 293.698 84.7176 293.69 84.726Z" fill="#4D4D4D"/>
<path d="M397.256 30.3765C397.282 30.3934 397.122 30.6289 396.819 31.0243C396.516 31.4282 396.062 31.9919 395.49 32.6817C394.345 34.0615 392.696 35.9124 390.761 37.8559C389.802 38.7897 388.902 39.8582 387.665 40.2452C387.068 40.4303 386.429 40.4387 385.89 40.2284C385.343 40.018 384.973 39.5974 384.746 39.1851C384.292 38.3354 384.367 37.5362 384.426 37.0482C384.502 36.5434 384.603 36.2826 384.628 36.291C384.662 36.2994 384.62 36.5771 384.594 37.065C384.586 37.5446 384.569 38.3018 385.007 39.0337C385.225 39.3955 385.554 39.732 386.008 39.8918C386.454 40.0517 387.009 40.0433 387.531 39.8666C388.599 39.5217 389.474 38.5037 390.442 37.553C392.368 35.618 394.042 33.8091 395.246 32.4882C396.465 31.159 397.206 30.3345 397.256 30.3765Z" fill="#EB996E"/>
<path d="M403.684 30.376C403.709 30.3928 403.524 30.6284 403.179 31.0322C402.834 31.4361 402.321 32.0082 401.682 32.7065C401.008 33.43 400.251 34.2545 399.418 35.1547C398.989 35.6174 398.535 36.097 398.072 36.5934C397.601 37.0897 397.105 37.6114 396.491 38.0488C395.885 38.4863 395.178 38.8145 394.438 38.8649C393.706 38.9322 392.923 38.6209 392.528 38.032C392.326 37.746 392.208 37.401 392.217 37.0561C392.225 36.7111 392.36 36.4083 392.503 36.1559C392.814 35.6511 393.134 35.2641 393.411 34.8771C393.975 34.1115 394.438 33.4973 394.758 33.0766C395.086 32.656 395.279 32.4373 395.304 32.4541C395.33 32.4709 395.187 32.7317 394.901 33.1776C394.614 33.6235 394.194 34.2713 393.664 35.0538C393.411 35.4492 393.083 35.8782 392.822 36.3325C392.553 36.7869 392.511 37.3421 392.856 37.7965C393.184 38.2508 393.782 38.4947 394.413 38.4358C395.044 38.3938 395.675 38.0993 396.238 37.6955C396.802 37.2917 397.29 36.7869 397.761 36.2989C398.232 35.8109 398.686 35.3398 399.124 34.8855C399.982 34.0105 400.765 33.2113 401.454 32.5046C402.119 31.8315 402.666 31.2931 403.053 30.9229C403.44 30.5527 403.659 30.3592 403.684 30.376Z" fill="#EB996E"/>
</svg>
